<?xml version="1.0" standalone="no"?>
<!DOCTYPE svg PUBLIC "-//W3C//DTD SVG 20010904//EN"
 "http://www.w3.org/TR/2001/REC-SVG-20010904/DTD/svg10.dtd">
<svg version="1.0" xmlns="http://www.w3.org/2000/svg"
 width="400.000000pt" height="400.000000pt" viewBox="0 0 400.000000 400.000000"
 preserveAspectRatio="xMidYMid meet">
<metadata>
Created by potrace 1.14, written by Peter Selinger 2001-2017
</metadata>
<g transform="translate(0.000000,400.000000) scale(0.100000,-0.100000)"
fill="#000000" stroke="none">
<path d="M1864 3880 c-211 -59 -479 -303 -673 -614 -110 -177 -216 -378 -280
-531 -19 -44 -39 -93 -46 -110 -15 -35 -75 -219 -104 -320 -25 -84 -67 -297
-76 -380 -4 -33 -9 -71 -11 -85 -10 -50 -12 -397 -3 -480 49 -449 244 -826
534 -1032 121 -86 338 -182 456 -202 18 -3 45 -8 59 -10 104 -20 165 -24 305
-21 88 2 171 6 185 9 14 3 41 8 60 10 19 3 53 10 75 16 22 6 49 13 59 15 89
21 233 83 319 137 l47 30 0 162 0 161 146 84 145 84 -1 71 c-1 39 -1 115 -1
168 l1 97 75 45 c42 25 80 46 85 46 6 0 10 3 10 8 0 4 18 16 40 26 41 19 58
50 46 81 -3 8 -2 15 3 15 10 0 8 31 -4 49 -5 10 -4 12 3 7 9 -5 13 10 14 51 3
85 -1 293 -6 333 -41 319 -99 559 -198 825 -48 130 -167 382 -226 479 -23 37
-42 70 -42 71 0 12 -152 229 -218 311 -167 208 -362 356 -525 398 -70 18 -180
17 -253 -4z"/>
</g>
</svg>
