<?xml version="1.0" encoding="utf-8"?>
<!-- Generator: Adobe Illustrator 24.3.0, SVG Export Plug-In . SVG Version: 6.00 Build 0)  -->
<svg version="1.1" id="Layer_1" xmlns="http://www.w3.org/2000/svg" xmlns:xlink="http://www.w3.org/1999/xlink" x="0px" y="0px"
	 viewBox="0 0 89 89" style="enable-background:new 0 0 89 89;" xml:space="preserve">
<style type="text/css">
	.st0{fill:#FEE888;}
	.st1{fill:#FEE889;}
	.st2{fill:#FEE98C;}
</style>
<g>
	<path class="st0" d="M88.9,47c-5.1,9-13.4,11.7-22.8,7c-4.2-2-8-4.8-11.9-7.3c-1.2-0.8-3-2.1-1-3.4c6.3-4.3,12-9.6,20.1-10.2
		c6.8-0.5,11.8,2.5,15.5,7.9C88.9,43,88.9,45,88.9,47z"/>
	<path class="st1" d="M41,88.9c-9.3-7.3-10.7-16-4.2-26.1c1.9-2.9,3.8-5.9,5.7-8.7c0.7-1.1,2-2.5,3.1-0.8C50,59.7,55.5,65.5,56,73.9
		c0.3,6.7-2.7,11.4-8,15C45.7,88.9,43.3,88.9,41,88.9z"/>
	<path class="st1" d="M47,0.1c9.1,5.3,11.7,14.2,6.6,23.7c-2,3.8-4.6,7.3-7,10.9c-1,1.4-2.3,3-3.7,0.7c-4.1-6.5-9.7-12.2-9.9-20.7
		C32.9,7.7,35.8,3,42,0.1C43.7,0.1,45.3,0.1,47,0.1z"/>
	<path class="st2" d="M0.1,42c5.1-9,14.1-11.6,23.7-6.6c3.8,2,7.3,4.6,10.9,7c1.2,0.8,3,2.1,0.9,3.4C29.2,50,23.4,55.6,15,56
		c-6.7,0.3-11.3-2.7-14.9-8C0.1,46,0.1,44,0.1,42z"/>
</g>
</svg>
