<?xml version="1.0" encoding="UTF-8"?>
<svg width="93px" height="145px" viewBox="0 0 93 145" version="1.1" xmlns="http://www.w3.org/2000/svg" xmlns:xlink="http://www.w3.org/1999/xlink">
    <title>E2ACFD4E-D89E-4523-8F58-DCF85A85A199</title>
    <defs>
        <linearGradient x1="49.9991805%" y1="-0.861443382%" x2="49.9991805%" y2="99.141041%" id="linearGradient-1">
            <stop stop-color="#C49737" offset="0%"></stop>
            <stop stop-color="#FDD765" offset="48%"></stop>
            <stop stop-color="#C49737" offset="100%"></stop>
        </linearGradient>
        <linearGradient x1="-0.00412343708%" y1="49.9963138%" x2="100.006385%" y2="49.9963138%" id="linearGradient-2">
            <stop stop-color="#C49737" offset="0%"></stop>
            <stop stop-color="#FDD765" offset="48%"></stop>
            <stop stop-color="#C49737" offset="100%"></stop>
        </linearGradient>
        <linearGradient x1="-0.00359138069%" y1="49.9980419%" x2="100.006518%" y2="49.9980419%" id="linearGradient-3">
            <stop stop-color="#C49737" offset="0%"></stop>
            <stop stop-color="#FDD765" offset="48%"></stop>
            <stop stop-color="#C49737" offset="100%"></stop>
        </linearGradient>
        <linearGradient x1="0.00132996409%" y1="49.9979265%" x2="99.9976061%" y2="49.9979265%" id="linearGradient-4">
            <stop stop-color="#C49737" offset="0%"></stop>
            <stop stop-color="#FDD765" offset="48%"></stop>
            <stop stop-color="#C49737" offset="100%"></stop>
        </linearGradient>
        <linearGradient x1="-0.00465549348%" y1="49.9982721%" x2="100.005454%" y2="49.9982721%" id="linearGradient-5">
            <stop stop-color="#C49737" offset="0%"></stop>
            <stop stop-color="#FDD765" offset="48%"></stop>
            <stop stop-color="#C49737" offset="100%"></stop>
        </linearGradient>
        <linearGradient x1="0.000930974864%" y1="49.9998848%" x2="99.9966751%" y2="49.9998848%" id="linearGradient-6">
            <stop stop-color="#C49737" offset="0%"></stop>
            <stop stop-color="#FDD765" offset="48%"></stop>
            <stop stop-color="#C49737" offset="100%"></stop>
        </linearGradient>
        <linearGradient x1="50.0093195%" y1="0.225794884%" x2="50.0093195%" y2="94.7440832%" id="linearGradient-7">
            <stop stop-color="#C49737" offset="0%"></stop>
            <stop stop-color="#FDD765" offset="48%"></stop>
            <stop stop-color="#C49737" offset="100%"></stop>
        </linearGradient>
        <linearGradient x1="49.9897099%" y1="-1.48503956%" x2="49.9897099%" y2="96.2820227%" id="linearGradient-8">
            <stop stop-color="#C49737" offset="0%"></stop>
            <stop stop-color="#FDD765" offset="48%"></stop>
            <stop stop-color="#C49737" offset="100%"></stop>
        </linearGradient>
        <linearGradient x1="50.006147%" y1="-1.48503956%" x2="50.006147%" y2="96.2820227%" id="linearGradient-9">
            <stop stop-color="#C49737" offset="0%"></stop>
            <stop stop-color="#FDD765" offset="48%"></stop>
            <stop stop-color="#C49737" offset="100%"></stop>
        </linearGradient>
        <linearGradient x1="49.9963276%" y1="-65.7830228%" x2="49.9963276%" y2="101.608282%" id="linearGradient-10">
            <stop stop-color="#C49737" offset="0%"></stop>
            <stop stop-color="#FDD765" offset="48%"></stop>
            <stop stop-color="#C49737" offset="100%"></stop>
        </linearGradient>
        <linearGradient x1="50.0039089%" y1="-1.48503956%" x2="50.0039089%" y2="96.2820227%" id="linearGradient-11">
            <stop stop-color="#C49737" offset="0%"></stop>
            <stop stop-color="#FDD765" offset="48%"></stop>
            <stop stop-color="#C49737" offset="100%"></stop>
        </linearGradient>
        <linearGradient x1="49.999096%" y1="0.726033947%" x2="49.999096%" y2="98.8676787%" id="linearGradient-12">
            <stop stop-color="#C49737" offset="0%"></stop>
            <stop stop-color="#FDD765" offset="48%"></stop>
            <stop stop-color="#C49737" offset="100%"></stop>
        </linearGradient>
    </defs>
    <g id="Page-1" stroke="none" stroke-width="1" fill="none" fill-rule="evenodd">
        <g id="Golden-hives-v3a" transform="translate(-151.000000, -4029.000000)" fill-rule="nonzero">
            <g id="Group-7" transform="translate(0.000000, 3955.000000)">
                <g id="Golden-Hive" transform="translate(151.000000, 74.000000)">
                    <g id="Group" transform="translate(10.000000, 0.000000)">
                        <path d="M41.7637305,98.9606457 C35.7781572,99.8021726 29.8546295,99.4717683 24.0807411,97.5386295 C15.7210121,94.7420584 9.90150196,89.159869 6.38862739,81.1553233 C3.0107932,73.4592766 2.12025668,65.3598082 2.83013108,57.0485889 C4.01264678,43.2026415 8.73723496,30.5596578 16.1224835,18.8951089 C19.2338867,13.9810298 22.8234058,9.40465666 27.5954406,5.92172092 C28.1301275,5.53107719 28.6812382,5.15868783 29.2359986,4.79542567 C33.6485341,1.90940816 38.0665441,1.87107397 42.5411251,4.69320114 C47.3368832,7.71977737 50.9793236,11.8872524 54.1582469,16.478229 C62.5362247,28.5790576 67.552792,41.9558674 69.1203553,56.6068329 C69.124005,56.6433416 69.1258299,56.6798504 69.1294796,56.7145337 L71.8138633,58.2643306 C71.8138633,58.2570288 71.8138633,58.2479016 71.8138633,58.2405999 C71.7974394,57.6290782 71.7828405,56.9974766 71.7098457,56.3293663 C70.1094348,41.3607746 64.9231545,27.4527623 56.2988193,14.9959733 C52.3552755,9.30060669 48.4263306,5.32662813 43.9298511,2.49172289 C41.3093379,0.837876049 38.6249543,0 35.9478701,0 C33.2032658,0 30.4659609,0.879861124 27.8126001,2.61585268 C27.2195174,3.00284554 26.6337341,3.40079102 26.0625499,3.81881633 C21.655489,7.03523811 17.7995389,11.3834315 13.9253401,17.5022997 C6.00175497,30.0175027 1.3976082,43.2482775 0.238815811,56.8277109 C-0.567776687,66.2834798 0.664010499,74.581921 4.00717217,82.2012993 C7.88684559,91.0418956 14.3633089,97.0329832 23.2558999,100.008447 C27.2049184,101.330064 31.4002943,102 35.7215863,102 C35.7215863,102 35.7215863,102 35.7215863,102 C37.8001131,102 39.9534596,101.844838 42.1268796,101.53999 C43.3604917,101.366573 44.5576064,101.140219 45.7218734,100.866403 L42.2856433,98.8821519 C42.1086309,98.907708 41.9370932,98.936915 41.7637305,98.9606457 Z" id="Path" fill="#000000"></path>
                        <path d="M21.5989181,25.1308052 C18.6389791,29.8805949 16.1754047,34.957138 14.292139,40.25821 C12.4471955,45.5665837 11.1405886,51.0958355 10.7080945,56.7108828 C10.2044304,62.3095012 10.6095515,67.9920898 11.9398816,73.3880845 C11.8595874,67.8259749 12.1296681,62.3642644 13.0475777,56.9974766 C13.4964957,54.3177336 14.038482,51.656245 14.7483564,49.0385669 C15.4053096,46.4081107 16.2210264,43.8159887 17.138936,41.2622009 C18.0039243,38.6883333 19.0313261,36.1692288 20.1298978,33.6793314 C21.1956218,31.173005 22.41281,28.7342198 23.6409475,26.2917837 C26.1629177,21.4415949 28.9257707,16.6954561 32.0152755,12.0807488 C27.9567648,15.9013906 24.5643317,20.3956189 21.5989181,25.1308052 Z" id="Path" fill="#000000"></path>
                        <path d="M37.8950063,87.3618126 L30.1228854,82.8730605 L30.1228854,71.9751955 L37.885882,67.4937452 L37.885882,58.53267 L47.3186345,53.0855629 L55.0798062,57.5670133 L62.8428028,53.0855629 L69.1294796,56.7145337 C69.1258299,56.6780249 69.124005,56.6415162 69.1203553,56.6068329 C67.552792,41.9558674 62.5362247,28.5790576 54.1582469,16.478229 C50.9793236,11.8872524 47.3387081,7.71977737 42.5411251,4.69320114 C38.0665441,1.87107397 33.6485341,1.9112336 29.2359986,4.79542567 C28.6812382,5.15868783 28.1319523,5.53107719 27.5954406,5.92172092 C22.8234058,9.40648209 19.2338867,13.9828552 16.1224835,18.8951089 C8.73723496,30.5614833 4.01082191,43.2026415 2.83013108,57.0485889 C2.12025668,65.3598082 3.0107932,73.4592766 6.38862739,81.1553233 C9.90150196,89.159869 15.7191872,94.7420584 24.0807411,97.5386295 C29.8564544,99.4699429 35.7781572,99.8021726 41.7637305,98.9606457 C41.938918,98.936915 42.1104558,98.907708 42.2838184,98.8803264 L37.8968312,96.3484439 L37.8968312,87.3618126 L37.8950063,87.3618126 Z M23.6391226,26.2917837 C22.41281,28.7342198 21.1937969,31.1748304 20.1280729,33.6793314 C19.0295012,36.1692288 18.0020995,38.6883333 17.1371111,41.2622009 C16.2192016,43.8159887 15.4053096,46.4081107 14.7465316,49.0385669 C14.0348323,51.656245 13.4946708,54.3177336 13.0457528,56.9974766 C12.1278432,62.3642644 11.8577625,67.8259749 11.9380568,73.3880845 C10.6077266,67.9920898 10.2026055,62.3113267 10.7062696,56.7108828 C11.1387638,51.0958355 12.4453706,45.5665837 14.2903141,40.25821 C16.1735798,34.957138 18.6371542,29.8805949 21.5970932,25.1308052 C24.5625068,20.3956189 27.9567648,15.9013906 32.0116257,12.0789233 C28.9257707,16.6954561 26.1610928,21.4415949 23.6391226,26.2917837 Z" id="Shape" fill="#000000"></path>
                        <path d="M43.4736336,98.6795282 C43.0812866,98.7525458 42.683465,98.820087 42.2819936,98.8821519 L45.7182236,100.866403 C46.0795479,100.780607 46.4372224,100.691161 46.7912471,100.596238 L43.4736336,98.6795282 Z" id="Path" fill="#000000"></path>
                        <path d="M68.6112166,70.6535784 C68.5582954,70.9839827 68.5017244,71.3125615 68.4415037,71.6411404 L71.3448717,69.9653883 C71.3886686,69.647762 71.4306406,69.326485 71.4707877,69.001557 L68.6112166,70.6535784 Z" id="Path" fill="#000000"></path>
                        <path d="M55.9922412,93.4094887 L55.9922412,95.903037 L49.0431366,99.9171752 C51.857086,98.9624711 54.4301525,97.6755373 56.7623363,96.065501 L56.7623363,92.8180468 C56.5086794,93.0206704 56.2531976,93.2159923 55.9922412,93.4094887 Z" id="Path" fill="#000000"></path>
                        <path d="M69.1878755,57.6382053 L71.5054603,58.9762514 L71.5054603,68.7113123 C71.7682415,66.4934052 71.9306549,64.1331138 71.9963503,61.5848023 L72,61.4606725 L71.958028,60.8911359 C71.9233555,60.4366018 71.8777337,59.8159529 71.8430612,59.195304 C71.8266374,58.8849795 71.817513,58.574655 71.8102135,58.2643306 L69.1258299,56.7145337 C69.1586776,57.0212073 69.1769263,57.3278809 69.1878755,57.6382053 Z" id="Path" fill="#000000"></path>
                        <path d="M38.6669263,86.9145802 L30.8948054,82.4258282 L30.8948054,72.418777 L38.6578019,67.9355012 L38.6578019,58.974426 L47.3204594,53.9709004 L55.0816311,58.4541761 L62.8428028,53.9709004 L69.1878755,57.6345545 C69.1769263,57.3260554 69.1586776,57.0175564 69.1294796,56.7108828 L62.8428028,53.0819121 L55.0798062,57.5633624 L47.3186345,53.0819121 L37.885882,58.5290191 L37.885882,67.4900943 L30.1228854,71.9715446 L30.1228854,82.8694096 L37.8950063,87.3581617 L37.8950063,96.344793 L42.2819936,98.8766756 C42.683465,98.8146107 43.0794617,98.7470695 43.4736336,98.6740519 L38.6669263,95.8975607 L38.6669263,86.9145802 L38.6669263,86.9145802 Z" id="Path" fill="#000000"></path>
                        <path d="M63.7552378,73.4939599 L63.7552378,81.4181864 L63.7552378,82.4605115 L62.853752,82.9807613 L55.9940661,86.9419618 L55.9940661,93.4094887 C56.2531976,93.2178177 56.5105042,93.0206704 56.7641612,92.8198722 L56.7641612,87.3873687 L64.5271577,82.9059184 L64.5271577,73.9065089 L68.4451534,71.6447912 C68.5035493,71.3162124 68.5619451,70.9876336 68.6148663,70.6572293 L63.7570626,73.4629275 L63.7570626,73.4939599 L63.7552378,73.4939599 Z" id="Path" fill="#000000"></path>
                        <path d="M54.1892697,94.8607119 L47.3295837,98.8219124 L46.0667738,98.0935626 C45.221859,98.3180915 44.3586955,98.5134134 43.4736336,98.6777028 L46.793072,100.594413 C47.5595173,100.389964 48.3095389,100.163609 49.0431366,99.9153498 L55.9922412,95.9012116 L55.9922412,93.4076633 C55.4082828,93.8402921 54.8079006,94.2491902 54.1892697,94.6343576 L54.1892697,94.8607119 L54.1892697,94.8607119 Z" id="Path" fill="#000000"></path>
                        <path d="M69.1878755,57.6382053 C69.2097739,58.2059166 69.2152485,58.7736278 69.2462713,59.3395136 C69.2535708,59.4837232 69.2626951,59.6261073 69.2718195,59.7684915 L69.7024888,60.0167511 L69.7024888,67.9409775 L68.9287439,68.3882098 C68.8393253,69.1494175 68.731658,69.9051488 68.6112166,70.6535784 L71.4707877,69.001557 C71.4835618,68.9048088 71.494511,68.8062351 71.5054603,68.7094869 L71.5054603,58.974426 L69.1878755,57.6382053 Z" id="Path" fill="#000000"></path>
                        <path d="M62.8428028,71.9040034 L55.9831168,67.9428029 L55.9831168,60.0185765 L62.8428028,56.057376 L69.2718195,59.7703169 C69.2626951,59.6279328 69.2535708,59.4855486 69.2462713,59.341339 C69.2152485,58.7754532 69.2097739,58.2059166 69.1878755,57.6400308 L62.8428028,53.9763767 L55.0816311,58.4596525 L47.3204594,53.9763767 L38.6578019,58.9799023 L38.6578019,67.9409775 L30.8948054,72.4242533 L30.8948054,82.4313045 L38.6669263,86.9200566 L38.6669263,95.9066879 L43.4736336,98.6831791 C44.3586955,98.5170643 45.2236839,98.3217424 46.0667738,98.099039 L40.4680729,94.8661882 L40.4680729,86.9364855 L47.325934,82.9771104 L54.1892697,86.9419618 L54.1892697,94.636183 C54.8079006,94.2510156 55.4082828,93.8421175 55.9922412,93.4094887 L55.9922412,86.9419618 L62.8519272,82.9807613 L63.7534129,82.4605115 L63.7534129,81.4181864 L63.7534129,73.4939599 L63.7534129,73.4592766 L68.6112166,70.6535784 C68.731658,69.9051488 68.8393253,69.1494175 68.9287439,68.3882098 L62.8428028,71.9040034 Z M46.4171488,81.3853285 L39.5574628,85.346529 L32.6977768,81.3853285 L32.6977768,73.4611021 L39.5556379,69.501727 L46.4189737,73.4647529 L46.4189737,81.3853285 L46.4171488,81.3853285 Z M47.3222843,71.902178 L40.4589485,67.9373266 L40.4589485,60.0167511 L47.3186345,56.0555506 L54.1783205,60.0167511 L54.1783205,67.9409775 L47.3222843,71.902178 Z M61.9522663,81.4181864 L55.0944052,85.3775614 L48.2310695,81.4127101 L48.2310695,73.4921345 L55.0907554,69.530934 L61.9504414,73.4921345 L61.9504414,81.4181864 L61.9522663,81.4181864 Z" id="Shape" fill="#000000"></path>
                        <polygon id="Path" fill="#000000" points="32.6977768 73.4611021 32.6977768 81.3853285 39.5574628 85.3483544 46.4171488 81.3853285 46.4171488 73.4647529 39.5538131 69.501727"></polygon>
                        <path d="M68.9287439,68.3882098 L69.7024888,67.9409775 L69.7024888,60.0167511 L69.2718195,59.7684915 C69.3174412,60.4822378 69.3703625,61.1485226 69.3959106,61.5172611 C69.3356899,63.8647744 69.1933501,66.1538737 68.9287439,68.3882098 Z" id="Path" fill="#000000"></path>
                        <path d="M55.9831168,60.0167511 L55.9831168,67.9409775 L62.8428028,71.902178 L68.9287439,68.3882098 C69.1933501,66.1538737 69.3356899,63.8647744 69.3959106,61.5172611 C69.3703625,61.1485226 69.3174412,60.4822378 69.2718195,59.7684915 L62.8428028,56.0555506 L55.9831168,60.0167511 Z" id="Path" fill="#000000"></path>
                        <polygon id="Path" fill="#000000" points="54.1801454 60.0167511 47.3186345 56.0555506 40.4589485 60.0167511 40.4589485 67.9373266 47.3222843 71.902178 54.1801454 67.9409775"></polygon>
                        <path d="M54.1892697,94.8607119 L54.1892697,94.6343576 C51.743944,96.1567729 49.0321874,97.3049734 46.0667738,98.0935626 L47.3295837,98.8219124 L54.1892697,94.8607119 Z" id="Path" fill="#000000"></path>
                        <path d="M54.1892697,86.9401364 L47.325934,82.975285 L40.4698978,86.9364855 L40.4698978,94.8607119 L46.0685986,98.0935626 C49.0340122,97.3067989 51.7457689,96.1567729 54.1910946,94.6343576 L54.1910946,86.9401364 L54.1892697,86.9401364 Z" id="Path" fill="#000000"></path>
                        <polygon id="Path" fill="#000000" points="48.2310695 73.4939599 48.2310695 81.4127101 55.0944052 85.3775614 61.9522663 81.4181864 61.9522663 73.4939599 55.0907554 69.530934"></polygon>
                        <g transform="translate(2.602857, 2.604111)">
                            <path d="M35.2921491,84.7577019 L27.5200282,80.2689499 L27.5200282,69.3710849 L35.2830248,64.8896346 L35.2830248,55.9285594 L44.7157773,50.4814523 L52.476949,54.9629026 L60.2399456,50.4814523 L66.5266224,54.1104231 C66.5229727,54.0739143 66.5211478,54.0374056 66.5174981,54.0027222 C64.9499348,39.3517567 59.9333675,25.974947 51.5553897,13.8741183 C48.3764664,9.28314174 44.7358509,5.11566675 39.9382679,2.08909052 C35.4636869,-0.733036655 31.0456769,-0.692877019 26.6331414,2.19131505 C26.078381,2.55457721 25.5290951,2.92696657 24.9925834,3.3176103 C20.2205486,6.80237147 16.6310295,11.3787446 13.5196263,16.2909983 C6.13437777,27.9573726 1.40796471,40.5985309 0.227273881,54.4444782 C-0.482600513,62.7556975 0.407936002,70.855166 3.7857702,78.5512127 C7.29864477,86.5557584 13.11633,92.1379478 21.4778839,94.9345189 C27.2535972,96.8658323 33.1753,97.198062 39.1608733,96.3565351 C39.3360608,96.3328044 39.5075986,96.3035974 39.6809613,96.2762158 L35.293974,93.7443333 L35.293974,84.7577019 L35.2921491,84.7577019 Z M21.0362654,23.6876731 C19.8099528,26.1301092 18.5909397,28.5707198 17.5252157,31.0752208 C16.426644,33.5651182 15.3992423,36.0842227 14.5342539,38.6580903 C13.6163444,41.2118781 12.8024524,43.8040001 12.1436744,46.4344562 C11.4319751,49.0521343 10.8918136,51.713623 10.4428956,54.393366 C9.52498605,59.7601537 9.25490531,65.2218643 9.33519958,70.7839739 C8.00486942,65.3879791 7.5997483,59.707216 8.1034124,54.1067722 C8.53590656,48.4917249 9.84251342,42.9624731 11.6874569,37.6540994 C13.5707226,32.3530274 16.034297,27.2764843 18.994236,22.5266945 C21.9596496,17.7915083 25.3539076,13.2972799 29.4087685,9.47481273 C26.3229135,14.0913455 23.5582356,18.8374843 21.0362654,23.6876731 Z" id="Shape" fill="url(#linearGradient-1)"></path>
                            <polygon id="Path" fill="url(#linearGradient-2)" points="30.0949196 70.8569914 30.0949196 78.7812179 36.9546056 82.7442438 43.8142916 78.7812179 43.8142916 70.8606423 36.9509559 66.8976164"></polygon>
                            <polygon id="Path" fill="url(#linearGradient-3)" points="66.6689623 57.1643809 60.2399456 53.45144 53.3802596 57.4126405 53.3802596 65.3368669 60.2399456 69.2998928 66.3258868 65.7840992 67.0996316 65.3368669 67.0996316 57.4126405"></polygon>
                            <polygon id="Path" fill="url(#linearGradient-4)" points="51.5772882 65.3368669 51.5772882 57.4126405 44.7157773 53.45144 37.8560913 57.4126405 37.8560913 65.333216 44.7194271 69.2980674"></polygon>
                            <polygon id="Path" fill="url(#linearGradient-5)" points="37.8670406 84.3323749 37.8670406 92.2566013 43.4639166 95.489452 44.7267265 96.2196272 51.5864125 92.2566013 51.5864125 92.0320724 51.5864125 84.3360258 44.7230768 80.3729998"></polygon>
                            <polygon id="Path" fill="url(#linearGradient-6)" points="45.6282123 70.8898493 45.6282123 78.8085994 52.491548 82.7734508 59.3494091 78.8140758 59.3494091 70.8898493 52.4878983 66.9268234"></polygon>
                        </g>
                    </g>
                    <g id="Group" transform="translate(0.000000, 111.000000)">
                        <g transform="translate(21.095140, 19.217868)" fill="#FFFFFF" id="Path">
                            <polygon points="13.5636428 0 13.5636428 14.7821319 10.1407338 14.7821319 10.1407338 8.72160404 3.42290905 8.72160404 3.42290905 14.7821319 0 14.7821319 0 0 3.42290905 0 3.42290905 5.82841477 10.1407338 5.82841477 10.1407338 0"></polygon>
                            <polygon points="17.0706618 0 20.4935708 0 20.4935708 14.7821319 17.0706618 14.7821319"></polygon>
                            <polygon points="38.132889 0 31.7313908 14.7821319 28.3505367 14.7821319 21.9709803 0 25.6681609 0 30.1680429 10.5584046 34.7319217 0"></polygon>
                            <polygon points="50.8097204 12.0369833 50.8097204 14.7821319 39.3579686 14.7821319 39.3579686 0 50.5336204 0 50.5336204 2.74514863 42.7589359 2.74514863 42.7589359 5.95452346 49.6248673 5.95452346 49.6248673 8.61559963 42.7589359 8.61559963 42.7589359 12.0369833 50.8097204 12.0369833"></polygon>
                        </g>
                        <g>
                            <path d="M10.9233219,7.4129979 L14.0500177,7.4129979 L14.0500177,13.4113853 C12.4226731,14.6359189 10.1846172,15.290222 8.07089772,15.290222 C3.42290905,15.290222 0,12.1009515 0,7.645111 C0,3.18927055 3.42290905,0 8.13306594,0 C10.7313318,0 12.8871063,0.886416169 14.3224608,2.55507176 L12.1246314,4.58194915 C11.0476584,3.44148793 9.80063702,2.91329355 8.30128583,2.91329355 C5.42874838,2.91329355 3.46313554,4.83416653 3.46313554,7.64328334 C3.46313554,10.4103639 5.42874838,12.3732731 8.25923086,12.3732731 C9.1880972,12.3732731 10.0547953,12.2051282 10.9214935,11.7390743 L10.9214935,7.4129979 L10.9233219,7.4129979 Z" id="Path" fill="url(#linearGradient-7)"></path>
                            <polygon id="Path" fill="url(#linearGradient-8)" points="35.0500767 0.254045046 38.4729857 0.254045046 38.4729857 12.2489921 45.8892887 12.2489921 45.8892887 15.036177 35.0519052 15.036177 35.0519052 0.254045046"></polygon>
                            <path d="M47.8091896,0.254045046 L54.5270143,0.254045046 C59.3651646,0.254045046 62.6820219,3.16916626 62.6820219,7.645111 C62.6820219,12.1228834 59.3651646,15.036177 54.5270143,15.036177 L47.8091896,15.036177 L47.8091896,0.254045046 Z M54.3587944,12.2270602 C57.2953285,12.2270602 59.2188864,10.4743321 59.2188864,7.645111 C59.2188864,4.81588991 57.297157,3.06316186 54.3587944,3.06316186 L51.2320986,3.06316186 L51.2320986,12.2288878 L54.3587944,12.2288878 L54.3587944,12.2270602 Z" id="Shape" fill="url(#linearGradient-9)"></path>
                            <g transform="translate(65.260175, 0.254045)">
                                <rect id="Rectangle" fill="#FFFFFF" x="0" y="0" width="11.1756518" height="2.74514863"></rect>
                                <polygon id="Path" fill="url(#linearGradient-10)" points="3.40096732 12.0369833 3.40096732 8.61559963 10.2687271 8.61559963 10.2687271 5.95452346 0 5.95452346 0 14.7821319 11.4517518 14.7821319 11.4517518 12.0369833"></polygon>
                            </g>
                            <polygon id="Path" fill="url(#linearGradient-11)" points="93 0.254045046 93 15.036177 90.1896308 15.036177 82.8153828 6.06052787 82.8153828 15.036177 79.4345287 15.036177 79.4345287 0.254045046 82.2650112 0.254045046 89.6173174 9.22969414 89.6173174 0.254045046"></polygon>
                            <path d="M16.2899021,7.645111 C16.2899021,3.25323872 19.7128111,0 24.3809131,0 C29.0289017,0 32.471924,3.23130678 32.471924,7.645111 C32.471924,12.0589152 29.0289017,15.290222 24.3809131,15.290222 C19.7109827,15.2883943 16.2899021,12.0369833 16.2899021,7.645111 Z M29.00696,7.645111 C29.00696,4.83599419 27.0212339,2.91512122 24.3809131,2.91512122 C21.7405922,2.91512122 19.7548661,4.83599419 19.7548661,7.645111 C19.7548661,10.4542278 21.7405922,12.3751008 24.3809131,12.3751008 C27.0212339,12.3751008 29.00696,10.4524002 29.00696,7.645111 Z" id="Shape" fill="url(#linearGradient-12)"></path>
                        </g>
                        <g transform="translate(0.000000, 25.854110)" fill="#FFFFFF" id="Rectangle">
                            <rect x="0" y="0" width="19.1935237" height="1.35064237"></rect>
                            <rect x="73.8064763" y="0" width="19.1935237" height="1.35064237"></rect>
                        </g>
                    </g>
                </g>
            </g>
        </g>
    </g>
</svg>