<?xml version="1.0" encoding="UTF-8"?>
<svg width="56px" height="56px" viewBox="0 0 56 56" version="1.1" xmlns="http://www.w3.org/2000/svg" xmlns:xlink="http://www.w3.org/1999/xlink">
    <title>0C67EAEE-135A-4506-95F6-1976D89AD182</title>
    <defs>
        <polygon id="path-1" points="0 0 56 0 56 50 0 50"></polygon>
        <polygon id="path-3" points="0 3.55271368e-15 8 3.55271368e-15 8 24.0001415 0 24.0001415"></polygon>
    </defs>
    <g id="Page-1" stroke="none" stroke-width="1" fill="none" fill-rule="evenodd">
        <g id="Golden-hives-v1" transform="translate(-938.000000, -1290.000000)">
            <g id="Group-27" transform="translate(938.000000, 1290.000000)">
                <path d="M51,46 L42,46 C41.447,46 41,45.553 41,45 C41,44.447 41.447,44 42,44 L51,44 C51.553,44 52,44.447 52,45 C52,45.553 51.553,46 51,46" id="Fill-1" fill="#EBC627"></path>
                <path d="M14,46 L5,46 C4.448,46 4,45.553 4,45 C4,44.447 4.448,44 5,44 L14,44 C14.552,44 15,44.447 15,45 C15,45.553 14.552,46 14,46" id="Fill-3" fill="#EBC627"></path>
                <path d="M25,50 L18,50 C17.448,50 17,49.553 17,49 C17,48.447 17.448,48 18,48 L25,48 C25.552,48 26,48.447 26,49 C26,49.553 25.552,50 25,50" id="Fill-5" fill="#EBC627"></path>
                <path d="M39,50 L32,50 C31.447,50 31,49.553 31,49 C31,48.447 31.447,48 32,48 L39,48 C39.553,48 40,48.447 40,49 C40,49.553 39.553,50 39,50" id="Fill-7" fill="#EBC627"></path>
                <g id="Group-11">
                    <mask id="mask-2" fill="white">
                        <use xlink:href="#path-1"></use>
                    </mask>
                    <g id="Clip-10"></g>
                    <path d="M43,48 L54,48 L54,45.08 C54,42.781 52.98,40.642 51.202,39.208 L48.148,36.715 C41.699,31.485 38,23.716 38,15.4 C38,12.367 36.982,9.365 35.135,6.947 C34.33,5.895 33.392,4.973 32.349,4.206 C31.029,3.221 29.569,2.494 28,2.039 C26.435,2.493 24.975,3.22 23.658,4.202 C20.113,6.815 18,11 18,15.4 C18,19.448 17.078,23.532 15.333,27.208 C13.563,30.931 11.044,34.13 7.849,36.718 L4.802,39.204 C3.019,40.642 2,42.781 2,45.08 L2,48 L13,48 L13,47 C13,42.037 17.038,38 22,38 C22.854,38 23.668,38.267 24.347,38.762 C24.836,36.461 25.831,34.27 27.265,32.394 C27.449,32.153 27.73,32.009 28.033,32 C28.328,31.991 28.624,32.12 28.82,32.351 C28.836,32.369 28.912,32.459 28.926,32.479 C30.287,34.334 31.227,36.486 31.685,38.739 C32.356,38.259 33.159,38 34,38 C39.151,38 43,42.224 43,46 L43,48 Z M55,50 L42,50 C41.447,50 41,49.553 41,49 L41,46 C41,43.226 37.942,40 34,40 C33.468,40 32.966,40.208 32.587,40.587 C32.208,40.966 32,41.468 32,42 C32,42.553 31.553,43 31,43 C30.447,43 30,42.553 30,42 L30,41.87 C30,39.386 29.314,36.914 28.052,34.78 C26.729,36.944 26.008,39.462 26,42.003 C25.998,42.554 25.551,43 25,43 L24.998,43 C24.447,42.999 24,42.552 24,42 C24,41.468 23.791,40.966 23.413,40.587 C23.035,40.208 22.533,40 22,40 C18.14,40 15,43.141 15,47 L15,49 C15,49.553 14.552,50 14,50 L1,50 C0.448,50 0,49.553 0,49 L0,45.08 C0,42.174 1.291,39.466 3.542,37.651 L6.587,35.166 C9.552,32.765 11.886,29.8 13.527,26.35 C15.144,22.94 16,19.154 16,15.4 C16,10.367 18.417,5.581 22.467,2.595 C24.056,1.411 25.831,0.549 27.74,0.034 C27.911,-0.011 28.089,-0.012 28.26,0.034 C30.174,0.55 31.95,1.413 33.539,2.599 C34.729,3.473 35.803,4.529 36.724,5.732 C38.837,8.498 40,11.931 40,15.4 C40,23.11 43.43,30.313 49.41,35.164 L52.462,37.655 C54.709,39.466 56,42.174 56,45.08 L56,49 C56,49.553 55.553,50 55,50 L55,50 Z" id="Fill-9" fill="#000000" mask="url(#mask-2)"></path>
                </g>
                <path d="M17,36 C16.448,36 16,35.553 16,35 L16,15 C16,14.448 16.448,14 17,14 C17.552,14 18,14.448 18,15 L18,35 C18,35.553 17.552,36 17,36" id="Fill-12" fill="#000000"></path>
                <path d="M39,36 C38.447,36 38,35.553 38,35 L38,15 C38,14.448 38.447,14 39,14 C39.553,14 40,14.448 40,15 L40,35 C40,35.553 39.553,36 39,36" id="Fill-14" fill="#000000"></path>
                <path d="M22,40 C18.14,40 15,43.141 15,47 L15,51 C15,51.552 15.449,52 16,52 L23,52 C23.551,52 24,51.552 24,51 L24,42 C24,41.468 23.791,40.966 23.413,40.587 C23.035,40.208 22.533,40 22,40 M23,54 L16,54 C14.346,54 13,52.654 13,51 L13,47 C13,42.037 17.038,38 22,38 C23.067,38 24.071,38.416 24.827,39.173 C25.583,39.929 26,40.934 26,42 L26,51 C26,52.654 24.654,54 23,54" id="Fill-16" fill="#000000"></path>
                <path d="M34,40 C33.468,40 32.966,40.208 32.587,40.587 C32.208,40.966 32,41.468 32,42 L32,51 C32,51.552 32.448,52 33,52 L40,52 C40.902,52 41,50.602 41,50 L41,46 C41,43.226 37.942,40 34,40 M40,54 L33,54 C31.346,54 30,52.654 30,51 L30,42 C30,40.934 30.416,39.929 31.173,39.173 C31.929,38.416 32.934,38 34,38 C39.151,38 43,42.224 43,46 L43,50 C43,52.949 41.45,54 40,54" id="Fill-18" fill="#000000"></path>
                <g id="Group-22" transform="translate(23.999800, 31.999858)">
                    <mask id="mask-4" fill="white">
                        <use xlink:href="#path-3"></use>
                    </mask>
                    <g id="Clip-21"></g>
                    <path d="M4.052,2.78044151 C2.729,4.94444151 2.008,7.46244151 2,10.0034415 L2,20.0004415 C2,21.1024415 2.897,22.0004415 4,22.0004415 C5.103,22.0004415 6,21.1024415 6,20.0004415 L6,9.87044151 C6,7.38544151 5.315,4.91444151 4.052,2.78044151 M4,24.0004415 C1.795,24.0004415 0,22.2064415 0,20.0004415 L0,10.0004415 C0.011,6.54844151 1.17,3.13644151 3.265,0.393441509 C3.449,0.153441509 3.731,0.00944150881 4.033,0.000441508805 C4.328,-0.00855849119 4.624,0.120441509 4.821,0.350441509 C4.837,0.369441509 4.912,0.459441509 4.927,0.478441509 C6.908,3.18144151 8,6.51644151 8,9.87044151 L8,20.0004415 C8,22.2064415 6.206,24.0004415 4,24.0004415" id="Fill-20" fill="#000000" mask="url(#mask-4)"></path>
                </g>
                <path d="M22.09,16 C22.47,13.93 24.01,12.19 26.08,11.6 L28.04,11.04 L29.22,11.38 L29.93,11.58 C32.01,12.18 33.54,13.93 33.91,16 L22.09,16 Z M30.62,9.7 C30.58,9.69 30.53,9.67 30.49,9.66 L28.32,9.04 C28.14,8.99 27.95,8.99 27.77,9.04 L25.54,9.67 C22.28,10.6 20,13.61 20,17 C20,17.55 20.45,18 21,18 L35,18 C35.55,18 36,17.54 36,16.98 C36,13.66 33.79,10.68 30.62,9.7 L30.62,9.7 Z" id="Fill-23" fill="#EBC627"></path>
                <path d="M24.5337,3.5996 C25.4557,4.4896 26.6947,4.9996 27.9997,4.9996 C29.3057,4.9996 30.5447,4.4896 31.4677,3.5986 C30.3907,2.9186 29.2297,2.3956 27.9997,2.0386 C26.7737,2.3946 25.6127,2.9176 24.5337,3.5996 M27.9997,6.9996 C25.6977,6.9996 23.5427,5.8666 22.2367,3.9666 C21.9317,3.5236 22.0317,2.9196 22.4627,2.5986 C24.0557,1.4116 25.8307,0.5486 27.7397,0.0346 C27.9107,-0.0104 28.0897,-0.0114 28.2607,0.0346 C30.1737,0.5496 31.9507,1.4126 33.5387,2.5986 C33.9687,2.9196 34.0687,3.5236 33.7647,3.9666 C32.4567,5.8666 30.3027,6.9996 27.9997,6.9996" id="Fill-25" fill="#EBC627"></path>
            </g>
        </g>
    </g>
</svg>