<?xml version="1.0" encoding="UTF-8"?>
<svg width="186px" height="74px" viewBox="0 0 186 74" version="1.1" xmlns="http://www.w3.org/2000/svg" xmlns:xlink="http://www.w3.org/1999/xlink">
    <title>BF61C4BE-FA1F-4F3A-B512-6057E8EC6B71</title>
    <defs>
        <linearGradient x1="49.9961559%" y1="-0.860786269%" x2="49.9961559%" y2="99.138273%" id="linearGradient-1">
            <stop stop-color="#C49737" offset="0%"></stop>
            <stop stop-color="#FDD765" offset="48%"></stop>
            <stop stop-color="#C49737" offset="100%"></stop>
        </linearGradient>
        <linearGradient x1="0.00110314396%" y1="50.0003185%" x2="100.001471%" y2="50.0003185%" id="linearGradient-2">
            <stop stop-color="#C49737" offset="0%"></stop>
            <stop stop-color="#FDD765" offset="48%"></stop>
            <stop stop-color="#C49737" offset="100%"></stop>
        </linearGradient>
        <linearGradient x1="-0.00845743703%" y1="49.9998408%" x2="99.9915426%" y2="49.9998408%" id="linearGradient-3">
            <stop stop-color="#C49737" offset="0%"></stop>
            <stop stop-color="#FDD765" offset="48%"></stop>
            <stop stop-color="#C49737" offset="100%"></stop>
        </linearGradient>
        <linearGradient x1="-0.00128700129%" y1="50.0019111%" x2="99.9981614%" y2="50.0019111%" id="linearGradient-4">
            <stop stop-color="#C49737" offset="0%"></stop>
            <stop stop-color="#FDD765" offset="48%"></stop>
            <stop stop-color="#C49737" offset="100%"></stop>
        </linearGradient>
        <linearGradient x1="-0.000919286634%" y1="50.0031847%" x2="99.9988969%" y2="50.0031847%" id="linearGradient-5">
            <stop stop-color="#C49737" offset="0%"></stop>
            <stop stop-color="#FDD765" offset="48%"></stop>
            <stop stop-color="#C49737" offset="100%"></stop>
        </linearGradient>
        <linearGradient x1="-0.00312557455%" y1="49.9969745%" x2="99.9957713%" y2="49.9969745%" id="linearGradient-6">
            <stop stop-color="#C49737" offset="0%"></stop>
            <stop stop-color="#FDD765" offset="48%"></stop>
            <stop stop-color="#C49737" offset="100%"></stop>
        </linearGradient>
    </defs>
    <g id="Page-1" stroke="none" stroke-width="1" fill="none" fill-rule="evenodd">
        <g id="Golden-hives-v1" transform="translate(-34.000000, -37.000000)" fill-rule="nonzero">
            <g id="Golden-Hive" transform="translate(34.000000, 37.000000)">
                <g id="Group">
                    <path d="M30.1650719,71.7957992 C25.8421715,72.4072636 21.5648136,72.165607 17.3949362,70.7650974 C11.3578136,68.7366468 7.15696728,64.6870686 4.61933547,58.8781574 C2.18007561,53.2944262 1.53701457,47.4177779 2.04891302,41.3891789 C2.90329156,31.3439549 6.31534065,22.1719898 11.6474643,13.7085178 C13.8936237,10.1440835 16.4859066,6.82313649 19.932568,4.29672695 C20.318769,4.01296356 20.7159002,3.74201529 21.1166748,3.48022068 C24.3028327,1.38769452 27.4944558,1.35840281 30.7243346,3.40516068 C34.1873914,5.60020781 36.81793,8.62457633 39.1132754,11.954677 C45.1631499,20.7348655 48.7865165,30.4377428 49.9177939,41.0669701 C49.9214373,41.0926004 49.9214373,41.1200614 49.923259,41.1456916 L51.8615506,42.2697608 C51.8615506,42.2642686 51.8615506,42.2587764 51.8615506,42.2514535 C51.8506204,41.8084164 51.8378685,41.3507335 51.7868608,40.8655897 C50.6300796,30.0056901 46.8864806,19.9165285 40.6580792,10.8782069 C37.810758,6.74624576 34.9725452,3.86284357 31.7262711,1.80693204 C29.833522,0.607802875 27.8952304,0 25.9624039,0 C23.9803914,0 22.003844,0.638925311 20.0874128,1.89846862 C19.6593126,2.17857055 19.2366776,2.46782613 18.8231511,2.77172757 C15.6406366,5.10591029 12.8552532,8.26026076 10.0571179,12.697954 C4.33514986,21.7765518 1.0105425,31.376908 0.172559275,41.2280745 C-0.410385577,48.0878256 0.480427024,54.1091017 2.89418305,59.6360803 C5.69596174,66.0509636 10.3722725,70.3971203 16.7937744,72.5555528 C19.6465607,73.5148561 22.6742306,74 25.7966289,74 C25.7966289,74 25.7966289,74 25.7966289,74 C27.2977119,74 28.853446,73.8883254 30.421932,73.6668069 C31.3127446,73.5404864 32.1780533,73.3757205 33.0178583,73.1780015 L30.5366992,71.7390465 C30.4146452,71.7573539 30.2907694,71.7793226 30.1650719,71.7957992 Z" id="Path" fill="#000000"></path>
                    <path d="M15.6023808,18.2340862 C13.4655236,21.679523 11.6857201,25.3629549 10.3267299,29.2093219 C8.99506527,33.0611811 8.05142329,37.0723139 7.73809043,41.1456916 C7.3737499,45.2080849 7.66704402,49.3290616 8.62708133,53.2449964 C8.56878684,49.2100641 8.76553073,45.2465303 9.4268088,41.354395 C9.75107187,39.4101581 10.1427379,37.4787363 10.6546364,35.5802677 C11.1301008,33.6726454 11.716689,31.7906534 12.3816105,29.9397838 C13.0064545,28.0724376 13.7478875,26.2453675 14.5421499,24.4384355 C15.3109084,22.620519 16.1907908,20.8502016 17.07796,19.0780535 C18.8996626,15.5593874 20.8944271,12.1157814 23.1241911,8.7673734 C20.1948932,11.539101 17.7447031,14.7978031 15.6023808,18.2340862 Z" id="Path" fill="#000000"></path>
                    <path d="M27.3724017,63.381757 L21.7597358,60.1248856 L21.7597358,52.217956 L27.3651149,48.9665768 L27.3651149,42.465649 L34.1764612,38.5149304 L39.7818402,41.7663096 L45.3872193,38.5149304 L49.9269024,41.1475223 C49.9250807,41.1218921 49.923259,41.0944311 49.9214373,41.0688009 C48.7901599,30.4395735 45.1667933,20.7348655 39.1169188,11.9565078 C36.8215734,8.62640707 34.1910348,5.60203854 30.727978,3.40699142 C27.4962775,1.35840281 24.3064761,1.38769452 21.1203182,3.48205141 C20.7195436,3.74567675 20.3224124,4.01479429 19.9362115,4.29855768 C16.48955,6.82679795 13.8972671,10.1459143 11.6511077,13.7103486 C6.31716235,22.1738205 2.90511327,31.3439549 2.05255642,41.3910096 C1.54065797,47.4196086 2.18371901,53.2962569 4.62297888,58.8799881 C7.16061068,64.6870686 11.361457,68.7366468 17.3985796,70.7669281 C21.568457,72.1692684 25.8458149,72.4090943 30.1687153,71.7976299 C30.2944128,71.7793226 30.4182886,71.7591846 30.5439861,71.7390465 L27.3760451,69.9009921 L27.3760451,63.381757 L27.3724017,63.381757 Z M17.0761383,19.0762228 C16.1907908,20.8483709 15.3109084,22.6186883 14.5403282,24.4366047 C13.7478875,26.2435368 13.0046328,28.0706069 12.3797888,29.937953 C11.716689,31.7906534 11.1282791,33.6708147 10.6528147,35.578437 C10.1390945,37.4787363 9.74925017,39.4083274 9.42498709,41.3525643 C8.76188732,45.2465303 8.56696514,49.2082333 8.62525962,53.2431657 C7.66522232,49.3290616 7.37192819,45.2062542 7.73626873,41.1438609 C8.04777988,37.0704832 8.99324356,33.0575196 10.3249082,29.2074912 C11.6838984,25.3611242 13.4637019,21.6776923 15.6005591,18.2322555 C17.7428814,14.7959724 20.1930715,11.5372702 23.1205477,8.76371193 C20.8944271,12.1139507 18.8978409,15.5575567 17.0761383,19.0762228 Z" id="Shape" fill="#000000"></path>
                    <path d="M31.4001863,71.592588 C31.1160007,71.6456792 30.8299934,71.695109 30.5403426,71.7390465 L33.0215017,73.1780015 C33.2820052,73.1157567 33.5406869,73.0516811 33.797547,72.9821133 L31.4001863,71.592588 Z" id="Path" fill="#000000"></path>
                    <path d="M49.5534533,51.2604834 C49.5151976,51.5003092 49.4732984,51.7383043 49.4313992,51.9781302 L51.528179,50.7625244 C51.5609697,50.5318523 51.5901169,50.2993493 51.6192641,50.063185 L49.5534533,51.2604834 Z" id="Path" fill="#000000"></path>
                    <path d="M40.4412966,67.7681898 L40.4412966,69.5769526 L35.4225058,72.4878157 C37.4537042,71.7939685 39.3136627,70.8621261 40.9969159,69.6941194 L40.9969159,67.3379679 C40.812924,67.4862571 40.628932,67.6290542 40.4412966,67.7681898 Z" id="Path" fill="#000000"></path>
                    <path d="M49.9688015,41.8175701 L51.6429463,42.7896885 L51.6429463,49.8526508 C51.8324034,48.2434378 51.950814,46.5317038 51.9981783,44.682665 L52,44.5929591 L51.9708528,44.1810445 C51.9471706,43.8515128 51.9125583,43.4011529 51.8888761,42.9507929 C51.8761242,42.7256129 51.8706591,42.5004329 51.865194,42.275253 L49.9269024,41.1511838 C49.9487628,41.3690408 49.9615147,41.5923901 49.9688015,41.8175701 Z" id="Path" fill="#000000"></path>
                    <path d="M27.928021,63.0577175 L22.3153551,59.8008461 L22.3153551,52.5419955 L27.9207342,49.2906163 L27.9207342,42.7896885 L34.1764612,39.1593479 L39.7818402,42.4107271 L45.3872193,39.1593479 L49.9688015,41.8175701 C49.959693,41.5942208 49.9487628,41.3690408 49.9269024,41.1475223 L45.3872193,38.5149304 L39.7818402,41.7663096 L34.1764612,38.5149304 L27.3651149,42.465649 L27.3651149,48.9665768 L21.7597358,52.217956 L21.7597358,60.1248856 L27.3724017,63.381757 L27.3724017,69.9009921 L30.5403426,71.7390465 C30.8299934,71.695109 31.1160007,71.6456792 31.4001863,71.592588 L27.928021,69.5787833 L27.928021,63.0577175 L27.928021,63.0577175 Z" id="Path" fill="#000000"></path>
                    <path d="M46.044854,53.3200564 L46.044854,59.0685535 L46.044854,59.8246456 L45.3945061,60.2017763 L40.4412966,63.0760248 L40.4412966,67.7681898 C40.628932,67.6290542 40.8147457,67.4862571 40.9969159,67.3397986 L40.9969159,63.4000643 L46.602295,60.1486851 L46.602295,53.6202964 L49.4313992,51.9781302 C49.4732984,51.7401351 49.5151976,51.5003092 49.5534533,51.2604834 L46.0466757,53.2962569 L46.0466757,53.3200564 L46.044854,53.3200564 Z" id="Path" fill="#000000"></path>
                    <path d="M39.1387792,68.8226912 L34.1855697,71.6969397 L33.2747183,71.1678583 C32.6644479,71.3307934 32.0414256,71.4717597 31.402008,71.592588 L33.7993687,72.983944 C34.3531663,72.8356547 34.894212,72.6708889 35.4243275,72.4914772 L40.4431183,69.580614 L40.4431183,67.7718513 C40.0204833,68.0849064 39.5869181,68.3833156 39.1406009,68.6615868 L39.1406009,68.8226912 L39.1387792,68.8226912 Z" id="Path" fill="#000000"></path>
                    <path d="M49.9688015,41.8175701 C49.9833752,42.2294847 49.9888403,42.6413993 50.0107007,43.0514831 C50.0161658,43.1558348 50.0234526,43.2601865 50.0289177,43.3627075 L50.3404289,43.5439499 L50.3404289,49.292447 L49.7811662,49.6164865 C49.7155849,50.1693674 49.6390734,50.7167561 49.5516316,51.2604834 L51.6174424,50.063185 C51.626551,49.9936172 51.6338378,49.9222186 51.6429463,49.8508201 L51.6429463,42.7878578 L49.9688015,41.8175701 Z" id="Path" fill="#000000"></path>
                    <path d="M45.3872193,52.1666955 L40.4321881,49.292447 L40.4321881,43.5439499 L45.3872193,40.6697014 L50.0289177,43.3627075 C50.0216309,43.2601865 50.0161658,43.1558348 50.0107007,43.0514831 C49.9888403,42.6413993 49.9833752,42.2276539 49.9688015,41.8175701 L45.3872193,39.1593479 L39.7818402,42.4107271 L34.1764612,39.1593479 L27.9207342,42.7896885 L27.9207342,49.2906163 L22.3153551,52.5419955 L22.3153551,59.8008461 L27.928021,63.0577175 L27.928021,69.5787833 L31.4001863,71.592588 C32.0396039,71.4717597 32.6644479,71.3307934 33.2728966,71.1678583 L29.2305384,68.8226912 L29.2305384,63.0741941 L34.1819263,60.2017763 L39.1387792,63.0778556 L39.1387792,68.6597561 C39.5850964,68.3814849 40.0186616,68.0830756 40.4412966,67.7700205 L40.4412966,63.0778556 L45.3945061,60.203607 L46.044854,59.8264763 L46.044854,59.0703842 L46.044854,53.3218871 L46.044854,53.2980876 L49.5516316,51.2623141 C49.6390734,50.7185869 49.7155849,50.1711981 49.7811662,49.6183172 L45.3872193,52.1666955 Z M33.5261133,59.0465847 L28.5729038,61.9208332 L23.6178725,59.0465847 L23.6178725,53.2980876 L28.5692604,50.4256698 L33.5261133,53.3017491 L33.5261133,59.0465847 Z M34.1801046,52.1648648 L29.2232516,49.2887855 L29.2232516,43.5421192 L34.1764612,40.6678707 L39.1296707,43.5421192 L39.1296707,49.2906163 L34.1801046,52.1648648 Z M44.7441583,59.0685535 L39.7927705,61.9409713 L34.8359175,59.064892 L34.8359175,53.3182257 L39.7891271,50.4439771 L44.7423366,53.3182257 L44.7423366,59.0685535 L44.7441583,59.0685535 Z" id="Shape" fill="#000000"></path>
                    <polygon id="Path" fill="#000000" points="23.6178725 53.2980876 23.6178725 59.0465847 28.5729038 61.9208332 33.5261133 59.0465847 33.5261133 53.2999184 28.5692604 50.4238391"></polygon>
                    <path d="M49.7829879,49.6164865 L50.3422506,49.292447 L50.3422506,43.5439499 L50.0307394,43.3627075 C50.0635301,43.8808045 50.1017858,44.3641177 50.1200029,44.6314045 C50.076282,46.3358155 49.9724449,47.9962891 49.7829879,49.6164865 Z" id="Path" fill="#000000"></path>
                    <path d="M40.4340098,43.5439499 L40.4340098,49.292447 L45.389041,52.1666955 L49.7848096,49.6164865 C49.9760883,47.9962891 50.0781037,46.3339848 50.1218246,44.6314045 C50.1036075,44.3641177 50.0653518,43.8808045 50.0325611,43.3627075 L45.3908627,40.6697014 L40.4340098,43.5439499 Z" id="Path" fill="#000000"></path>
                    <polygon id="Path" fill="#000000" points="39.1314924 43.5439499 34.1764612 40.6697014 29.2232516 43.5439499 29.2232516 49.2887855 34.1801046 52.1648648 39.1314924 49.292447"></polygon>
                    <path d="M39.1387792,68.8226912 L39.1387792,68.6597561 C37.3717276,69.7636872 35.415219,70.5985008 33.2728966,71.169689 L34.183748,71.6987704 L39.1387792,68.8226912 Z" id="Path" fill="#000000"></path>
                    <path d="M39.1387792,63.0760248 L34.1819263,60.1999456 L29.2305384,63.0723634 L29.2305384,68.8208604 L33.2728966,71.1660276 C35.415219,70.5948393 37.3717276,69.7600257 39.1387792,68.6560946 L39.1387792,63.0760248 Z" id="Path" fill="#000000"></path>
                    <polygon id="Path" fill="#000000" points="34.8359175 53.3200564 34.8359175 59.0667227 39.7927705 61.942802 44.7441583 59.0685535 44.7441583 53.3200564 39.7891271 50.4458079"></polygon>
                    <g transform="translate(1.888799, 1.890670)">
                        <path d="M25.4836029,61.4910866 L19.870937,58.2342151 L19.870937,50.3272856 L25.4763161,47.0759063 L25.4763161,40.5749786 L32.2876623,36.6242599 L37.8930414,39.8756391 L43.4984205,36.6242599 L48.0381036,39.2568519 C48.0362819,39.2312216 48.0344602,39.2037607 48.0326385,39.1781304 C46.9013611,28.548903 43.2779945,18.8441951 37.22812,10.0658373 C34.9327746,6.73573662 32.302236,3.7113681 28.8391792,1.51632097 C25.6074787,-0.532267631 22.4176773,-0.502975927 19.2315194,1.59138097 C18.8307448,1.85500631 18.4336136,2.12412385 18.0474126,2.40788724 C14.6007512,4.93612751 12.0084683,8.25524381 9.76230893,11.8196781 C4.42836354,20.2831501 1.01631446,29.4532844 0.16375761,39.5003392 C-0.348140838,45.5289382 0.294920201,51.4055865 2.73418007,56.9893177 C5.27181187,62.7963982 9.47265821,66.8459764 15.5097808,68.8762576 C19.6796582,70.278598 23.9570161,70.5184238 28.2799165,69.9069595 C28.405614,69.8886522 28.5294898,69.8685141 28.6551872,69.8483761 L25.4872463,68.0103216 L25.4872463,61.4910866 L25.4836029,61.4910866 Z M15.1873395,17.1855523 C14.301992,18.9577005 13.4221096,20.7280179 12.6515294,22.5459343 C11.8590887,24.3528663 11.115834,26.1799364 10.49099,28.0472826 C9.82789023,29.8999829 9.23948027,31.7801442 8.76401588,33.6877665 C8.25029573,35.5880659 7.86045136,37.5176569 7.53618828,39.4618938 C6.87308851,43.3558598 6.67816633,47.3175629 6.73646081,51.3524952 C5.77642351,47.4383912 5.48312938,43.3155837 5.84746991,39.2531904 C6.15898107,35.1798127 7.10444475,31.1668492 8.4361094,27.3168207 C9.79509958,23.4704537 11.5749031,19.7870218 13.7117603,16.3415851 C15.8540826,12.9053019 18.3042727,9.64659979 21.2317489,6.87304149 C19.0056282,10.2232802 17.0090421,13.6668863 15.1873395,17.1855523 Z" id="Shape" fill="url(#linearGradient-1)"></path>
                        <polygon id="Path" fill="url(#linearGradient-2)" points="21.7290737 51.4074172 21.7290737 57.1559143 26.684105 60.0301628 31.6373145 57.1559143 31.6373145 51.4092479 26.6804616 48.5331687"></polygon>
                        <polygon id="Path" fill="url(#linearGradient-3)" points="48.1419406 41.4720371 43.4984205 38.779031 38.545211 41.6532795 38.545211 47.4017766 43.4984205 50.2760251 47.894189 47.725816 48.4534518 47.4017766 48.4534518 41.6532795"></polygon>
                        <polygon id="Path" fill="url(#linearGradient-4)" points="37.2426936 47.4017766 37.2426936 41.6532795 32.2876623 38.779031 27.3344528 41.6532795 27.3344528 47.3981151 32.2913058 50.2741944"></polygon>
                        <polygon id="Path" fill="url(#linearGradient-5)" points="27.3417396 61.1835237 27.3417396 66.9320207 31.3840978 69.2771878 32.2967709 69.8062693 37.2499804 66.9320207 37.2499804 66.7672549 37.2499804 61.1853544 32.2931275 58.3092751"></polygon>
                        <polygon id="Path" fill="url(#linearGradient-6)" points="32.9471187 51.429386 32.9471187 57.1760523 37.9039717 60.0521316 42.8553595 57.177883 42.8553595 51.429386 37.9003282 48.5551374"></polygon>
                    </g>
                </g>
                <g id="Group" transform="translate(63.000000, 15.000000)">
                    <g transform="translate(27.901933, 25.433830)" fill="#000000" id="Path">
                        <polygon points="17.9373479 0 17.9373479 19.5661702 13.4114766 19.5661702 13.4114766 11.5435656 4.52587128 11.5435656 4.52587128 19.5661702 0 19.5661702 0 0 4.52587128 0 4.52587128 7.71397265 13.4114766 7.71397265 13.4114766 0"></polygon>
                        <polygon points="22.5745859 0 27.1004572 0 27.1004572 19.5661702 22.5745859 19.5661702"></polygon>
                        <polygon points="50.432702 0 41.9670041 19.5661702 37.4959033 19.5661702 29.0575907 0 33.9467731 0 39.8985038 13.9760967 45.934216 0"></polygon>
                        <polygon points="67.1979606 15.9319833 67.1979606 19.5661702 52.0539096 19.5661702 52.0539096 0 66.8346494 0 66.8346494 3.63418692 56.5523957 3.63418692 56.5523957 7.88198531 65.6333492 7.88198531 65.6333492 11.4029463 56.5523957 11.4029463 56.5523957 15.9301571 67.1979606 15.9301571"></polygon>
                    </g>
                    <g>
                        <path d="M14.4466396,9.80865225 L18.5818144,9.80865225 L18.5818144,17.7472505 C16.4311583,19.3689379 13.4680728,20.2345684 10.6747759,20.2345684 C4.52769697,20.2345684 0,16.0141634 0,10.1172842 C0,4.22040502 4.52587128,0 10.7569317,0 C14.1946951,0 17.0445883,1.17426241 18.9432999,3.38216793 L16.0404619,6.06306562 C14.6146025,4.55460412 12.9660096,3.8551601 10.9833165,3.8551601 C7.18406757,3.8551601 4.58429318,6.39909095 4.58429318,10.115458 C4.58429318,13.7770383 7.18224188,16.3757559 10.9267203,16.3757559 C12.1554058,16.3757559 13.3019355,16.1511302 14.4466396,15.5375188 L14.4466396,9.80865225 L14.4466396,9.80865225 Z" id="Path" fill="#000000"></path>
                        <polygon id="Path" fill="#000000" points="46.3559491 0.334199099 50.8818203 0.334199099 50.8818203 16.2095694 60.6893962 16.2095694 60.6893962 19.8985431 46.3559491 19.8985431"></polygon>
                        <path d="M63.2325744,0.334199099 L72.1181797,0.334199099 C78.517203,0.334199099 82.9043223,4.19118542 82.9043223,10.1172842 C82.9043223,16.043383 78.517203,19.9003693 72.1181797,19.9003693 L63.2325744,19.9003693 L63.2325744,0.334199099 Z M71.8936205,16.182176 C75.7768509,16.182176 78.3200291,13.8628708 78.3200291,10.1172842 C78.3200291,6.37169758 75.7768509,4.05239235 71.8936205,4.05239235 L67.7584456,4.05239235 L67.7584456,16.182176 L71.8936205,16.182176 L71.8936205,16.182176 Z" id="Shape" fill="#000000"></path>
                        <g transform="translate(86.312875, 0.334199)">
                            <rect id="Rectangle" fill="#FFFFFF" x="0" y="0" width="14.7807398" height="3.63418692"></rect>
                            <polygon id="Path" fill="#000000" points="4.49848602 15.9319833 4.49848602 11.4029463 13.5794395 11.4029463 13.5794395 7.88198531 0 7.88198531 0 19.5661702 15.1440509 19.5661702 15.1440509 15.9319833"></polygon>
                        </g>
                        <polygon id="Path" fill="#000000" points="123 0.334199099 123 19.9003693 119.284733 19.9003693 109.531927 8.02077838 109.531927 19.9003693 105.060826 19.9003693 105.060826 0.334199099 108.805305 0.334199099 118.528899 12.21379 118.528899 0.334199099"></polygon>
                        <path d="M21.5430743,10.1172842 C21.5430743,4.30441135 26.0689456,0 32.2452354,0 C38.3923143,0 42.9473965,4.27701798 42.9473965,10.1172842 C42.9473965,15.9575504 38.3923143,20.2345684 32.2452354,20.2345684 C26.0707712,20.2345684 21.5430743,15.9301571 21.5430743,10.1172842 Z M38.3649291,10.1172842 C38.3649291,6.39909095 35.7377694,3.85698632 32.2452354,3.85698632 C28.7527014,3.85698632 26.1255418,6.40091717 26.1255418,10.1172842 C26.1255418,13.8336512 28.7527014,16.3775821 32.2452354,16.3775821 C35.7395951,16.3775821 38.3649291,13.8336512 38.3649291,10.1172842 Z" id="Shape" fill="#000000"></path>
                    </g>
                    <g transform="translate(0.001826, 34.217970)" fill="#000000" id="Rectangle">
                        <rect x="0" y="0" width="25.384314" height="1.78787387"></rect>
                        <rect x="97.6138604" y="0" width="25.384314" height="1.78787387"></rect>
                    </g>
                </g>
            </g>
        </g>
    </g>
</svg>