<svg xmlns="http://www.w3.org/2000/svg" xmlns:xlink="http://www.w3.org/1999/xlink" width="85.999" height="86" viewBox="0 0 85.999 86">
  <defs>
    <radialGradient id="radial-gradient" cx="0.5" cy="0.5" r="0.5" gradientUnits="objectBoundingBox">
      <stop offset="0" stop-color="#fff"/>
      <stop offset="1" stop-color="#ffda3d"/>
    </radialGradient>
  </defs>
  <g id="Group_8" data-name="Group 8" transform="translate(-1121 -2630.5)">
    <g id="Subtraction_1" data-name="Subtraction 1" transform="translate(-1856 -1510)" fill="url(#radial-gradient)">
      <path d="M 3019.99951171875 4226 C 3014.26123046875 4226 3008.695556640625 4224.87646484375 3003.456787109375 4222.66064453125 C 2998.396240234375 4220.51953125 2993.85107421875 4217.455078125 2989.947998046875 4213.5517578125 C 2986.044921875 4209.64892578125 2982.98046875 4205.103515625 2980.83984375 4200.04248046875 C 2978.6240234375 4194.80322265625 2977.50048828125 4189.2373046875 2977.50048828125 4183.49951171875 C 2977.50048828125 4177.76171875 2978.6240234375 4172.19580078125 2980.83984375 4166.95654296875 C 2982.980712890625 4161.8955078125 2986.045166015625 4157.3505859375 2989.947998046875 4153.44775390625 C 2993.850341796875 4149.544921875 2998.3955078125 4146.48046875 3003.456787109375 4144.3388671875 C 3008.695556640625 4142.123046875 3014.26123046875 4140.99951171875 3019.99951171875 4140.99951171875 C 3025.737548828125 4140.99951171875 3031.303466796875 4142.123046875 3036.54248046875 4144.3388671875 C 3041.604248046875 4146.48046875 3046.1494140625 4149.544921875 3050.0517578125 4153.44775390625 C 3053.95458984375 4157.35009765625 3057.019287109375 4161.8955078125 3059.16015625 4166.95654296875 C 3061.376220703125 4172.1962890625 3062.499755859375 4177.76220703125 3062.499755859375 4183.49951171875 C 3062.499755859375 4189.23681640625 3061.376220703125 4194.802734375 3059.16015625 4200.04248046875 C 3057.019775390625 4205.10302734375 3053.955322265625 4209.64794921875 3050.0517578125 4213.5517578125 C 3046.1484375 4217.455078125 3041.603271484375 4220.51953125 3036.54248046875 4222.66064453125 C 3031.303466796875 4224.87646484375 3025.737548828125 4226 3019.99951171875 4226 Z M 3019.99951171875 4156.99951171875 C 3016.422119140625 4156.99951171875 3012.951904296875 4157.7001953125 3009.684814453125 4159.08251953125 C 3006.529541015625 4160.4169921875 3003.69580078125 4162.32763671875 3001.261962890625 4164.76123046875 C 2998.8291015625 4167.19384765625 2996.91845703125 4170.02783203125 2995.583251953125 4173.1845703125 C 2994.201171875 4176.4521484375 2993.50048828125 4179.9228515625 2993.50048828125 4183.49951171875 C 2993.50048828125 4187.07666015625 2994.201171875 4190.54736328125 2995.583251953125 4193.81494140625 C 2996.91748046875 4196.9697265625 2998.828125 4199.80419921875 3001.261962890625 4202.23876953125 C 3003.6962890625 4204.6728515625 3006.5302734375 4206.58349609375 3009.684814453125 4207.91748046875 C 3012.952880859375 4209.29931640625 3016.423095703125 4210 3019.99951171875 4210 C 3023.576416015625 4210 3027.046875 4209.29931640625 3030.31494140625 4207.91748046875 C 3033.469482421875 4206.58349609375 3036.303466796875 4204.6728515625 3038.738037109375 4202.23876953125 C 3041.17138671875 4199.80517578125 3043.082275390625 4196.970703125 3044.4169921875 4193.81494140625 C 3045.799072265625 4190.54736328125 3046.499755859375 4187.07666015625 3046.499755859375 4183.49951171875 C 3046.499755859375 4179.9228515625 3045.799072265625 4176.4521484375 3044.4169921875 4173.1845703125 C 3043.08251953125 4170.029296875 3041.171875 4167.19482421875 3038.738037109375 4164.76123046875 C 3036.304931640625 4162.328125 3033.470947265625 4160.41748046875 3030.31494140625 4159.08251953125 C 3027.04736328125 4157.7001953125 3023.576904296875 4156.99951171875 3019.99951171875 4156.99951171875 Z" stroke="none"/>
      <path d="M 3019.99951171875 4225.5 C 3025.67041015625 4225.5 3031.170654296875 4224.3896484375 3036.34765625 4222.2001953125 C 3041.348876953125 4220.08447265625 3045.840576171875 4217.0556640625 3049.6982421875 4213.1982421875 C 3053.555908203125 4209.34033203125 3056.58447265625 4204.8486328125 3058.69970703125 4199.84765625 C 3060.889404296875 4194.669921875 3061.999755859375 4189.16943359375 3061.999755859375 4183.49951171875 C 3061.999755859375 4177.82958984375 3060.889404296875 4172.3291015625 3058.69970703125 4167.1513671875 C 3056.583984375 4162.14990234375 3053.555419921875 4157.658203125 3049.697998046875 4153.80126953125 C 3045.841552734375 4149.9443359375 3041.349853515625 4146.91552734375 3036.34765625 4144.79931640625 C 3031.170654296875 4142.60986328125 3025.67041015625 4141.49951171875 3019.99951171875 4141.49951171875 C 3014.32861328125 4141.49951171875 3008.828369140625 4142.60986328125 3003.651611328125 4144.79931640625 C 2998.64990234375 4146.91552734375 2994.158203125 4149.9443359375 2990.301513671875 4153.80126953125 C 2986.444580078125 4157.658203125 2983.416015625 4162.14990234375 2981.300537109375 4167.1513671875 C 2979.11083984375 4172.32861328125 2978.00048828125 4177.8291015625 2978.00048828125 4183.49951171875 C 2978.00048828125 4189.169921875 2979.11083984375 4194.67041015625 2981.30029296875 4199.84765625 C 2983.415771484375 4204.84912109375 2986.444091796875 4209.3408203125 2990.301513671875 4213.1982421875 C 2994.158935546875 4217.0556640625 2998.650634765625 4220.08447265625 3003.651611328125 4222.2001953125 C 3008.828369140625 4224.3896484375 3014.32861328125 4225.5 3019.99951171875 4225.5 M 3019.99951171875 4156.49951171875 C 3023.64404296875 4156.49951171875 3027.18017578125 4157.21337890625 3030.509765625 4158.6220703125 C 3033.725341796875 4159.98193359375 3036.61279296875 4161.9287109375 3039.091552734375 4164.40771484375 C 3041.5712890625 4166.88720703125 3043.517822265625 4169.77490234375 3044.87744140625 4172.98974609375 C 3046.28564453125 4176.3193359375 3046.999755859375 4179.85546875 3046.999755859375 4183.49951171875 C 3046.999755859375 4187.14404296875 3046.28564453125 4190.68017578125 3044.87744140625 4194.009765625 C 3043.517578125 4197.22509765625 3041.57080078125 4200.11279296875 3039.091552734375 4202.59228515625 C 3036.611083984375 4205.072265625 3033.723876953125 4207.01904296875 3030.509521484375 4208.3779296875 C 3027.1796875 4209.7861328125 3023.643798828125 4210.5 3019.99951171875 4210.5 C 3016.355712890625 4210.5 3012.820068359375 4209.7861328125 3009.490234375 4208.3779296875 C 3006.27587890625 4207.01904296875 3003.388427734375 4205.072265625 3000.908203125 4202.59228515625 C 2998.4287109375 4200.11181640625 2996.482177734375 4197.22412109375 2995.122802734375 4194.009765625 C 2993.714599609375 4190.68017578125 2993.00048828125 4187.14404296875 2993.00048828125 4183.49951171875 C 2993.00048828125 4179.85546875 2993.714599609375 4176.3193359375 2995.122802734375 4172.98974609375 C 2996.483154296875 4169.7734375 2998.4296875 4166.88623046875 3000.908447265625 4164.40771484375 C 3003.387939453125 4161.92822265625 3006.275146484375 4159.9814453125 3009.489990234375 4158.6220703125 C 3012.819091796875 4157.2138671875 3016.35498046875 4156.49951171875 3019.99951171875 4156.49951171875 M 3019.99951171875 4226.5 C 3014.1943359375 4226.5 3008.56298828125 4225.36328125 3003.261962890625 4223.12109375 C 2998.141845703125 4220.955078125 2993.54345703125 4217.8544921875 2989.594482421875 4213.9052734375 C 2985.64501953125 4209.9560546875 2982.544677734375 4205.35693359375 2980.37939453125 4200.2373046875 C 2978.13720703125 4194.935546875 2977.00048828125 4189.30419921875 2977.00048828125 4183.49951171875 C 2977.00048828125 4177.69482421875 2978.13720703125 4172.0634765625 2980.37939453125 4166.76171875 C 2982.545654296875 4161.640625 2985.64599609375 4157.04248046875 2989.594482421875 4153.09423828125 C 2993.542724609375 4149.1455078125 2998.14111328125 4146.044921875 3003.261962890625 4143.87841796875 C 3008.56298828125 4141.63623046875 3014.1943359375 4140.49951171875 3019.99951171875 4140.49951171875 C 3025.8046875 4140.49951171875 3031.43603515625 4141.63623046875 3036.7373046875 4143.87841796875 C 3041.8583984375 4146.044921875 3046.45703125 4149.1455078125 3050.4052734375 4153.09423828125 C 3054.35400390625 4157.04248046875 3057.45458984375 4161.64111328125 3059.62060546875 4166.76171875 C 3061.86279296875 4172.0634765625 3062.999755859375 4177.69482421875 3062.999755859375 4183.49951171875 C 3062.999755859375 4189.30419921875 3061.86279296875 4194.935546875 3059.62060546875 4200.2373046875 C 3057.455078125 4205.357421875 3054.3544921875 4209.9560546875 3050.4052734375 4213.9052734375 C 3046.4560546875 4217.8544921875 3041.857421875 4220.955078125 3036.7373046875 4223.12109375 C 3031.43603515625 4225.36328125 3025.8046875 4226.5 3019.99951171875 4226.5 Z M 3019.99951171875 4157.49951171875 C 3016.489501953125 4157.49951171875 3013.084716796875 4158.18701171875 3009.879638671875 4159.54296875 C 3006.782958984375 4160.8525390625 3004.002685546875 4162.7275390625 3001.615478515625 4165.11474609375 C 2999.22802734375 4167.501953125 2997.353515625 4170.28271484375 2996.043701171875 4173.37939453125 C 2994.68798828125 4176.5849609375 2994.00048828125 4179.98974609375 2994.00048828125 4183.49951171875 C 2994.00048828125 4187.009765625 2994.68798828125 4190.41455078125 2996.043701171875 4193.6201171875 C 2997.353271484375 4196.716796875 2999.22802734375 4199.4970703125 3001.615478515625 4201.88525390625 C 3004.00341796875 4204.27294921875 3006.783935546875 4206.14794921875 3009.879638671875 4207.45703125 C 3013.085205078125 4208.8125 3016.489990234375 4209.5 3019.99951171875 4209.5 C 3023.50927734375 4209.5 3026.91455078125 4208.8125 3030.1201171875 4207.45703125 C 3033.2158203125 4206.14794921875 3035.996337890625 4204.27294921875 3038.384521484375 4201.88525390625 C 3040.7724609375 4199.4970703125 3042.64697265625 4196.71630859375 3043.95654296875 4193.6201171875 C 3045.312255859375 4190.41455078125 3045.999755859375 4187.009765625 3045.999755859375 4183.49951171875 C 3045.999755859375 4179.98974609375 3045.312255859375 4176.5849609375 3043.95654296875 4173.37939453125 C 3042.64697265625 4170.28271484375 3040.772216796875 4167.50244140625 3038.384521484375 4165.11474609375 C 3035.9970703125 4162.72705078125 3033.216552734375 4160.8525390625 3030.1201171875 4159.54296875 C 3026.91455078125 4158.18701171875 3023.509521484375 4157.49951171875 3019.99951171875 4157.49951171875 Z" stroke="none" fill="#f1cd33"/>
    </g>
    <g id="Ellipse_4" data-name="Ellipse 4" transform="translate(1152 2661.5)" fill="#fde98a" stroke="#f1cd33" stroke-width="1">
      <ellipse cx="12" cy="12" rx="12" ry="12" stroke="none"/>
      <ellipse cx="12" cy="12" rx="11.5" ry="11.5" fill="none"/>
    </g>
  </g>
</svg>
