<?xml version="1.0" encoding="UTF-8"?>
<svg width="55px" height="56px" viewBox="0 0 55 56" version="1.1" xmlns="http://www.w3.org/2000/svg" xmlns:xlink="http://www.w3.org/1999/xlink">
    <title>C395164C-23EF-4374-B45F-2754E826628C</title>
    <g id="Page-1" stroke="none" stroke-width="1" fill="none" fill-rule="evenodd">
        <g id="Golden-hives-v1" transform="translate(-158.000000, -1290.000000)">
            <g id="Group-38" transform="translate(158.000000, 1290.000000)">
                <path d="M8.06686221,43 C7.79381375,43 7.52076528,42.8954702 7.31277915,42.6874771 C6.89574028,42.2704243 6.89574028,41.5963135 7.31277915,41.1792607 L13.1790547,35.3127896 C13.5960936,34.8957368 14.270182,34.8957368 14.6872209,35.3127896 C15.1042597,35.7298423 15.1042597,36.4039532 14.6872209,36.821006 L8.82094527,42.6874771 C8.61295914,42.8954702 8.33991067,43 8.06686221,43" id="Fill-1" fill="#000000"></path>
                <path d="M15.0910826,42 C14.8118353,42 14.5325879,41.8930958 14.31988,41.6803782 C13.8933733,41.2538521 13.8933733,40.5644289 14.31988,40.1379028 L18.1377148,36.3198946 C18.5642214,35.8933685 19.2536133,35.8933685 19.68012,36.3198946 C20.1066267,36.7464206 20.1066267,37.4358438 19.68012,37.8623699 L15.8622852,41.6803782 C15.6495773,41.8930958 15.37033,42 15.0910826,42" id="Fill-3" fill="#000000"></path>
                <path d="M25.1668611,31 C24.8682193,31 24.5695775,30.8856714 24.3420965,30.6581809 C23.8859678,30.2020332 23.8859678,29.4647306 24.3420965,29.008583 L29.0083743,24.3421107 C29.464503,23.8859631 30.2017749,23.8859631 30.6579035,24.3421107 C31.1140322,24.7982584 31.1140322,25.535561 30.6579035,25.9917087 L25.9916257,30.6581809 C25.7641447,30.8856714 25.4655029,31 25.1668611,31" id="Fill-5" fill="#000000"></path>
                <path d="M9.11126541,48 C8.82685257,48 8.54243973,47.8911172 8.32579713,47.6744625 C7.89140096,47.2400422 7.89140096,46.537859 8.32579713,46.1034387 L11.1032663,43.3258152 C11.5376625,42.8913949 12.2398067,42.8913949 12.6742029,43.3258152 C13.108599,43.7602355 13.108599,44.4624188 12.6742029,44.8968391 L9.8967337,47.6744625 C9.6800911,47.8911172 9.39567826,48 9.11126541,48" id="Fill-7" fill="#000000"></path>
                <path d="M27.5074788,15.1904816 C23.4563809,17.5260087 11.6173117,24.523859 6.61917547,29.336791 C6.47079159,29.4633897 6.403146,29.5332372 6.33440936,29.6019934 C0.798381612,35.1385022 0.798381612,44.1401039 6.32895407,49.6733386 C11.8584355,55.2043906 20.857481,55.2043906 26.3902355,49.6733386 C26.4284226,49.632958 26.4622453,49.6013083 26.4884307,49.5685673 C26.5560763,49.4878061 26.6684553,49.3710297 26.7557399,49.3120959 C26.6695463,49.3699384 26.6149935,49.4288722 26.5942634,49.451791 C26.6171756,49.4266895 26.6673642,49.3710297 26.6924586,49.348111 C31.6414972,44.1313729 41.6890493,26.9106804 44.9284002,21.2672175 C44.2333963,21.3326995 43.3823711,21.4156435 42.4058743,21.5171407 C42.0141845,21.5542472 41.646498,21.3916334 41.4173759,21.081685 C41.1871627,20.7728279 41.1380651,20.3657477 41.28754,20.0099618 C42.8488438,16.2785753 44.1472027,13.0677712 44.9611319,11.0301875 C41.7643323,12.3038137 35.6675008,14.770305 29.2215308,17.5794857 C28.906215,17.716998 28.5439838,17.6995361 28.2450339,17.5271 C27.9460841,17.3557553 27.7453294,17.0545378 27.7038692,16.7129396 C27.6318594,16.132332 27.5663959,15.6215718 27.5074788,15.1904816 M16.3525029,56 C12.1628406,56.0021805 7.97536043,54.4055094 4.78619821,51.2165327 C-1.5953994,44.8331224 -1.5953994,34.4454837 4.78619821,28.0631648 C4.91930727,27.9311093 5.04368787,27.8099674 5.17897905,27.7008307 C11.3543667,21.7452366 27.1583403,12.8691422 27.8282498,12.4948031 C28.1381103,12.3190929 28.5167074,12.3081792 28.8374784,12.4653362 C29.1593405,12.6214018 29.3830073,12.924802 29.4386513,13.2773138 C29.4386513,13.2773138 29.5368465,13.9026676 29.6841393,15.0005836 C38.7257361,11.0945782 46.4493349,8.09549948 46.5147983,8.07039802 C46.9119434,7.9186979 47.3636414,8.016921 47.6691376,8.31922988 C47.9713606,8.62044739 48.0706469,9.07227366 47.921172,9.47280565 C47.8317052,9.71290656 46.2605819,13.725866 44.0042741,19.1630604 C45.7750611,18.9906242 46.8224767,18.9065889 46.8224767,18.9065889 C47.2261681,18.8782134 47.6124026,19.0681114 47.828432,19.4075267 C48.0455526,19.7469421 48.0575542,20.1791238 47.8589817,20.5305442 C47.3112706,21.5029529 34.3789614,44.4162199 28.2363055,50.8902137 C28.2232128,50.9033101 28.207938,50.9196806 28.1882989,50.9382339 C28.1173802,51.0255433 28.0333687,51.1139441 27.9482662,51.2001622 C24.7481934,54.4022353 20.5487116,56 16.3525029,56" id="Fill-9" fill="#000000"></path>
                <path d="M7.16686109,19 C6.86821932,19 6.56957754,18.8856714 6.34209649,18.6581809 C5.88596784,18.2020332 5.88596784,17.4647306 6.34209649,17.008583 L11.0083743,12.3421107 C11.464503,11.8859631 12.2017749,11.8859631 12.6579035,12.3421107 C13.1140322,12.7982584 13.1140322,13.535561 12.6579035,13.9917087 L7.9916257,18.6581809 C7.76414465,18.8856714 7.46550287,19 7.16686109,19" id="Fill-11" fill="#000000"></path>
                <path d="M45.0000833,43 C44.744126,43 44.4881686,42.9020082 44.2932011,42.7070244 C43.9022663,42.316057 43.9022663,41.6841097 44.2932011,41.2931422 L45.2930345,40.2932256 C45.6839693,39.9022581 46.315864,39.9022581 46.7067989,40.2932256 C47.0977337,40.684193 47.0977337,41.3161403 46.7067989,41.7071077 L45.7069655,42.7070244 C45.511998,42.9020082 45.2560407,43 45.0000833,43" id="Fill-16" fill="#000000"></path>
                <path d="M14.0000833,12 C13.744126,12 13.4881686,11.9020082 13.2932011,11.7070244 C12.9022663,11.316057 12.9022663,10.6841097 13.2932011,10.2931422 L14.2930345,9.29322556 C14.6839693,8.90225815 15.315864,8.90225815 15.7067989,9.29322556 C16.0977337,9.68419298 16.0977337,10.3161403 15.7067989,10.7071077 L14.7069655,11.7070244 C14.511998,11.9020082 14.2560407,12 14.0000833,12" id="Fill-18" fill="#000000"></path>
                <path d="M19.0524779,13 C18.7587823,13 18.4650866,12.8761139 18.2566575,12.634695 C17.8766427,12.1931524 17.9240129,11.5239559 18.3629774,11.1406503 L26.2580216,4.25809166 C26.696986,3.87690379 27.3622751,3.92243457 27.7433425,4.36503603 C28.1233573,4.80657864 28.0759871,5.47577511 27.6370226,5.85908069 L19.7419784,12.7416393 C19.5430233,12.9142327 19.296698,13 19.0524779,13" id="Fill-20" fill="#EBC627"></path>
                <path d="M41.1202352,37 C40.8335267,37 40.5468181,36.8902422 40.3284269,36.6718466 C39.8905244,36.2339353 39.8905244,35.5261095 40.3284269,35.0881982 L52.0879565,23.3284334 C52.525859,22.8905222 53.2336707,22.8905222 53.6715731,23.3284334 C54.1094756,23.7663447 54.1094756,24.4741705 53.6715731,24.9120818 L41.9120435,36.6718466 C41.6936523,36.8902422 41.4069437,37 41.1202352,37" id="Fill-22" fill="#EBC627"></path>
                <path d="M30.0000833,3 C29.744126,3 29.4881686,2.90200817 29.2932011,2.70702441 C28.9022663,2.316057 28.9022663,1.68410966 29.2932011,1.29314224 L30.2930345,0.293225565 C30.6839693,-0.0977418548 31.315864,-0.0977418548 31.7067989,0.293225565 C32.0977337,0.684192984 32.0977337,1.31614032 31.7067989,1.70710774 L30.7069655,2.70702441 C30.511998,2.90200817 30.2560407,3 30.0000833,3" id="Fill-24" fill="#EBC627"></path>
                <path d="M5,11 C5,11.552 4.552,12 4,12 C3.448,12 3,11.552 3,11 C3,10.448 3.448,10 4,10 C4.552,10 5,10.448 5,11" id="Fill-26" fill="#000000"></path>
                <path d="M53,18 C53,18.552 52.552,19 52,19 C51.448,19 51,18.552 51,18 C51,17.448 51.448,17 52,17 C52.552,17 53,17.448 53,18" id="Fill-28" fill="#EBC627"></path>
                <path d="M18,2 C18,2.552 17.552,3 17,3 C16.448,3 16,2.552 16,2 C16,1.448 16.448,1 17,1 C17.552,1 18,1.448 18,2" id="Fill-30" fill="#000000"></path>
                <path d="M47,51 C47,51.552 46.552,52 46,52 C45.448,52 45,51.552 45,51 C45,50.448 45.448,50 46,50 C46.552,50 47,50.448 47,51" id="Fill-32" fill="#000000"></path>
                <path d="M36,7 C36,7.552 35.552,8 35,8 C34.448,8 34,7.552 34,7 C34,6.448 34.448,6 35,6 C35.552,6 36,6.448 36,7" id="Fill-34" fill="#EBC627"></path>
                <path d="M55,35 C55,35.552 54.552,36 54,36 C53.448,36 53,35.552 53,35 C53,34.448 53.448,34 54,34 C54.552,34 55,34.448 55,35" id="Fill-36" fill="#EBC627"></path>
            </g>
        </g>
    </g>
</svg>