<?xml version="1.0" encoding="UTF-8"?>
<svg width="49px" height="54px" viewBox="0 0 49 54" version="1.1" xmlns="http://www.w3.org/2000/svg" xmlns:xlink="http://www.w3.org/1999/xlink">
    <title>EA4DA17A-22E1-46CD-8D49-46CC87459A06</title>
    <g id="Page-1" stroke="none" stroke-width="1" fill="none" fill-rule="evenodd">
        <g id="Golden-hives-v1" transform="translate(-501.000000, -1236.000000)">
            <g id="Group-49" transform="translate(501.000000, 1236.000000)">
                <path d="M26,23 C23.794,23 22,24.794 22,27 C22,29.206 23.794,31 26,31 C28.206,31 30,29.206 30,27 C30,24.794 28.206,23 26,23 M26,33 C22.691,33 20,30.309 20,27 C20,23.691 22.691,21 26,21 C29.309,21 32,23.691 32,27 C32,30.309 29.309,33 26,33" id="Fill-1" fill="#EBC627"></path>
                <path d="M13.2896,22.1299 C13.1486,22.1299 13.0066,22.1009 12.8706,22.0379 C12.3686,21.8059 12.1506,21.2109 12.3826,20.7099 C14.8296,15.4189 20.1746,11.9999 25.9996,11.9999 C26.5526,11.9999 26.9996,12.4479 26.9996,12.9999 C26.9996,13.5519 26.5526,13.9999 25.9996,13.9999 C20.9516,13.9999 16.3186,16.9629 14.1976,21.5499 C14.0286,21.9149 13.6666,22.1299 13.2896,22.1299" id="Fill-3" fill="#000000"></path>
                <path d="M12,28 C11.448,28 11,27.552 11,27 C11,26.62 11.011,26.24 11.044,25.871 C11.093,25.321 11.575,24.917 12.129,24.964 C12.679,25.013 13.085,25.499 13.036,26.049 C13.008,26.359 13,26.68 13,27 C13,27.552 12.552,28 12,28" id="Fill-5" fill="#000000"></path>
                <path d="M26,42 C25.448,42 25,41.552 25,41 C25,40.448 25.448,40 26,40 C33.169,40 39,34.169 39,27 C39,26.448 39.448,26 40,26 C40.552,26 41,26.448 41,27 C41,35.271 34.271,42 26,42" id="Fill-7" fill="#000000"></path>
                <path d="M13.5195,42.3101 C13.2875,42.3101 13.0545,42.2291 12.8645,42.0651 C9.6475,39.2741 7.3735,35.4511 6.4635,31.3011 C6.3455,30.7611 6.6865,30.2281 7.2265,30.1101 C7.7685,29.9901 8.2985,30.3331 8.4175,30.8721 C9.2355,34.6051 11.2805,38.0441 14.1755,40.5551 C14.5925,40.9161 14.6375,41.5481 14.2755,41.9651 C14.0775,42.1931 13.7995,42.3101 13.5195,42.3101" id="Fill-9" fill="#000000"></path>
                <path d="M7.0249,29.002 C6.4959,29.002 6.0549,28.587 6.0269,28.053 C6.0089,27.704 5.9999,27.353 5.9999,27 C5.9999,26.448 6.4479,26 6.9999,26 C7.5519,26 7.9999,26.448 7.9999,27 C7.9999,27.319 8.0079,27.636 8.0239,27.951 C8.0529,28.502 7.6289,28.972 7.0769,29.001 C7.0599,29.001 7.0429,29.002 7.0249,29.002" id="Fill-11" fill="#000000"></path>
                <path d="M26,47 C23.283,47 20.661,46.468 18.207,45.419 C17.699,45.203 17.463,44.615 17.681,44.107 C17.897,43.6 18.483,43.363 18.993,43.581 C21.197,44.523 23.554,45 26,45 C26.552,45 27,45.448 27,46 C27,46.552 26.552,47 26,47" id="Fill-13" fill="#000000"></path>
                <path d="M45,28 C44.448,28 44,27.552 44,27 C44,26.265 43.959,25.563 43.878,24.914 C43.81,24.366 44.198,23.866 44.746,23.798 C45.29,23.727 45.794,24.118 45.862,24.666 C45.954,25.397 46,26.183 46,27 C46,27.552 45.552,28 45,28" id="Fill-15" fill="#000000"></path>
                <path d="M41.731,17.3599 C41.41,17.3599 41.095,17.2059 40.902,16.9209 C38.864,13.9079 36.008,11.6079 32.644,10.2689 C32.131,10.0639 31.881,9.4819 32.085,8.9689 C32.29,8.4569 32.87,8.2059 33.384,8.4099 C37.123,9.8989 40.295,12.4539 42.558,15.7989 C42.868,16.2569 42.748,16.8789 42.29,17.1879 C42.119,17.3039 41.924,17.3599 41.731,17.3599" id="Fill-17" fill="#000000"></path>
                <path d="M30.1079,9.4458 C30.0369,9.4458 29.9639,9.4388 29.8909,9.4228 C29.5439,9.3458 29.1939,9.2788 28.8399,9.2228 C28.2939,9.1368 27.9219,8.6248 28.0079,8.0798 C28.0939,7.5338 28.6139,7.1668 29.1519,7.2478 C29.5469,7.3098 29.9359,7.3838 30.3229,7.4688 C30.8619,7.5888 31.2029,8.1228 31.0839,8.6618 C30.9809,9.1288 30.5669,9.4458 30.1079,9.4458" id="Fill-19" fill="#000000"></path>
                <path d="M7.8379,12.3159 C7.6059,12.3159 7.3729,12.2359 7.1839,12.0719 C6.7669,11.7109 6.7209,11.0799 7.0819,10.6619 C11.1449,5.9649 16.7609,2.9589 22.8969,2.1979 C23.4409,2.1289 23.9449,2.5189 24.0119,3.0669 C24.0809,3.6149 23.6919,4.1139 23.1429,4.1819 C17.4999,4.8819 12.3329,7.6479 8.5949,11.9699 C8.3969,12.1989 8.1179,12.3159 7.8379,12.3159" id="Fill-21" fill="#000000"></path>
                <path d="M2.3145,24.1147 C2.2605,24.1147 2.2065,24.1107 2.1525,24.1017 C1.6065,24.0127 1.2375,23.4987 1.3265,22.9537 C1.8745,19.5867 3.0875,16.4197 4.9315,13.5407 C5.2295,13.0757 5.8485,12.9397 6.3135,13.2377 C6.7785,13.5357 6.9145,14.1547 6.6165,14.6197 C4.9195,17.2677 3.8045,20.1797 3.2995,23.2757 C3.2205,23.7657 2.7955,24.1147 2.3145,24.1147" id="Fill-23" fill="#000000"></path>
                <path d="M2,28 C1.448,28 1,27.552 1,27 C1,26.673 1.006,26.347 1.019,26.023 C1.04,25.471 1.52,25.023 2.057,25.063 C2.609,25.085 3.039,25.549 3.017,26.101 C3.005,26.399 3,26.699 3,27 C3,27.552 2.552,28 2,28" id="Fill-25" fill="#000000"></path>
                <path d="M25.5,2 C24.673,2 24,2.673 24,3.5 C24,4.327 24.673,5 25.5,5 C26.327,5 27,4.327 27,3.5 C27,2.673 26.327,2 25.5,2 M25.5,7 C23.57,7 22,5.43 22,3.5 C22,1.57 23.57,0 25.5,0 C27.43,0 29,1.57 29,3.5 C29,5.43 27.43,7 25.5,7" id="Fill-27" fill="#000000"></path>
                <path d="M43.5,17 C41.57,17 40,18.57 40,20.5 C40,22.43 41.57,24 43.5,24 C45.43,24 47,22.43 47,20.5 C47,18.57 45.43,17 43.5,17 M43.5,26 C40.467,26 38,23.533 38,20.5 C38,17.467 40.467,15 43.5,15 C46.533,15 49,17.467 49,20.5 C49,23.533 46.533,26 43.5,26" id="Fill-29" fill="#000000"></path>
                <path d="M12.5,22 C11.673,22 11,22.673 11,23.5 C11,24.327 11.673,25 12.5,25 C13.327,25 14,24.327 14,23.5 C14,22.673 13.327,22 12.5,22 M12.5,27 C10.57,27 9,25.43 9,23.5 C9,21.57 10.57,20 12.5,20 C14.43,20 16,21.57 16,23.5 C16,25.43 14.43,27 12.5,27" id="Fill-31" fill="#000000"></path>
                <path d="M26,50 C25.448,50 25,49.552 25,49 C25,48.448 25.448,48 26,48 C26.309,48 26.617,47.994 26.922,47.98 C27.44,47.951 27.94,48.382 27.965,48.935 C27.99,49.487 27.562,49.954 27.01,49.978 C26.675,49.993 26.338,50 26,50" id="Fill-33" fill="#000000"></path>
                <path d="M29.8799,49.6577 C29.4039,49.6577 28.9829,49.3177 28.8969,48.8337 C28.7989,48.2897 29.1619,47.7697 29.7049,47.6737 C32.7899,47.1227 35.7619,45.8567 38.3019,44.0107 C38.7499,43.6857 39.3749,43.7857 39.6989,44.2317 C40.0239,44.6787 39.9249,45.3037 39.4779,45.6287 C36.6949,47.6517 33.4369,49.0387 30.0569,49.6417 C29.9969,49.6527 29.9379,49.6577 29.8799,49.6577" id="Fill-35" fill="#000000"></path>
                <path d="M45.8867,37.4136 C45.7427,37.4136 45.5967,37.3826 45.4577,37.3166 C44.9587,37.0786 44.7467,36.4826 44.9847,35.9836 C45.2607,35.4036 45.5107,34.8066 45.7287,34.2116 C46.2297,32.8466 46.5867,31.4226 46.7897,29.9806 C46.8677,29.4336 47.3807,29.0566 47.9197,29.1296 C48.4667,29.2066 48.8477,29.7126 48.7697,30.2596 C48.5477,31.8416 48.1557,33.4026 47.6067,34.8996 C47.3677,35.5526 47.0927,36.2066 46.7897,36.8436 C46.6187,37.2026 46.2607,37.4136 45.8867,37.4136" id="Fill-37" fill="#000000"></path>
                <path d="M41.5,40 C40.122,40 39,41.122 39,42.5 C39,43.878 40.122,45 41.5,45 C42.878,45 44,43.878 44,42.5 C44,41.122 42.878,40 41.5,40 M41.5,47 C39.019,47 37,44.981 37,42.5 C37,40.019 39.019,38 41.5,38 C43.981,38 46,40.019 46,42.5 C46,44.981 43.981,47 41.5,47" id="Fill-39" fill="#EBC627"></path>
                <path d="M3,36 C2.449,36 2,36.449 2,37 C2,37.551 2.449,38 3,38 C3.551,38 4,37.551 4,37 C4,36.449 3.551,36 3,36 M3,40 C1.346,40 0,38.654 0,37 C0,35.346 1.346,34 3,34 C4.654,34 6,35.346 6,37 C6,38.654 4.654,40 3,40" id="Fill-41" fill="#000000"></path>
                <path d="M39.5,5 C39.224,5 39,5.224 39,5.5 C39,5.776 39.224,6 39.5,6 C39.776,6 40,5.776 40,5.5 C40,5.224 39.776,5 39.5,5 M39.5,8 C38.122,8 37,6.878 37,5.5 C37,4.122 38.122,3 39.5,3 C40.878,3 42,4.122 42,5.5 C42,6.878 40.878,8 39.5,8" id="Fill-43" fill="#EBC627"></path>
                <path d="M16,41 C14.897,41 14,41.897 14,43 C14,44.103 14.897,45 16,45 C17.103,45 18,44.103 18,43 C18,41.897 17.103,41 16,41 M16,47 C13.794,47 12,45.206 12,43 C12,40.794 13.794,39 16,39 C18.206,39 20,40.794 20,43 C20,45.206 18.206,47 16,47" id="Fill-45" fill="#000000"></path>
                <path d="M20,54 C18.897,54 18,53.103 18,52 C18,50.897 18.897,50 20,50 C21.103,50 22,50.897 22,52 C22,53.103 21.103,54 20,54 L20,54 Z" id="Fill-47" fill="#000000"></path>
            </g>
        </g>
    </g>
</svg>