<svg id="upstart-network-inc-logo-vector" xmlns="http://www.w3.org/2000/svg" width="154" height="31" viewBox="0 0 154 31">
  <path id="Path" d="M5.176,1.921,2.047,5.038a7.034,7.034,0,0,0,0,9.921h0a7.1,7.1,0,0,0,9.965,0L19,8.032h0a1.6,1.6,0,0,1,2,0h0L14.991,2.07a7.034,7.034,0,0,0-9.815-.148" transform="translate(0 12)" fill="#00918c"/>
  <path id="Path-2" data-name="Path" d="M19.932,1.628a7.329,7.329,0,0,0-9.759.49c-.052.052-.078.1-.129.129l-.414.412L0,12.321a7.291,7.291,0,0,1,10.173.129l6.212,6.21,7.2,7.215a7.3,7.3,0,0,0,10.3-10.332" transform="translate(5)" fill="#00ada8"/>
  <path id="Shape" d="M21.669,26V5.226h3.607V7.89a6.243,6.243,0,0,1,5.3-3c3.71,0,7.292,3,7.292,8.3s-3.556,8.278-7.292,8.278a6.293,6.293,0,0,1-5.3-2.794V26Zm43.493-9.417v-.052c0-3.441,2.712-5.148,6.345-5.148a13.264,13.264,0,0,1,4.349.672v-.414c0-2.2-1.356-3.415-3.863-3.415a10.85,10.85,0,0,0-4.478.983l-.972-2.923A13.392,13.392,0,0,1,72.5,4.967c4.63,0,6.882,2.484,6.882,6.727v9.443H75.8V19.2a6.289,6.289,0,0,1-5.065,2.3C67.771,21.5,65.162,19.791,65.162,16.583ZM0,12.185V0H3.659V12.03c0,3.932,2,6.027,5.244,6.027s5.219-1.992,5.219-5.872V0H17.78V12c0,6.313-3.5,9.468-8.928,9.468C3.454,21.472,0,18.317,0,12.185Zm95.171,4.579V8.382h-2V5.252h2V.879h3.607V5.252H103v3.13H98.779v7.788c0,1.423.716,1.992,1.919,1.992a4.792,4.792,0,0,0,2.226-.544v3a6.08,6.08,0,0,1-3.224.828C97.065,21.447,95.171,20.282,95.171,16.764Zm-39.5,0V8.382h-2V5.252h2V.879h3.581V5.252h4.222v3.13H59.252v7.788c0,1.423.716,1.992,1.919,1.992a4.787,4.787,0,0,0,2.226-.544v3a6.143,6.143,0,0,1-3.223.828C57.538,21.447,55.67,20.282,55.67,16.764Zm-16.118,2.3,1.612-2.458a8.731,8.731,0,0,0,5.143,1.966c1.535,0,2.43-.672,2.43-1.733V16.79c0-1.242-1.663-1.656-3.5-2.225-2.328-.673-4.912-1.63-4.912-4.683V9.831c0-3.027,2.456-4.864,5.577-4.864a10.742,10.742,0,0,1,5.756,1.811L50.221,9.365a9.074,9.074,0,0,0-4.426-1.526c-1.407,0-2.2.672-2.2,1.6v.051c0,1.165,1.689,1.63,3.531,2.226,2.277.724,4.861,1.785,4.861,4.657v.051c.026,3.363-2.533,5.019-5.782,5.019A10.975,10.975,0,0,1,39.552,19.066Zm43.365,2.1V5.226h3.607V8.8c.972-2.406,2.788-4.01,5.551-3.906V8.771h-.2c-3.146,0-5.347,2.1-5.347,6.312v6.08Z" transform="translate(51 5)" fill="#333"/>
</svg>
